<svg xmlns="http://www.w3.org/2000/svg" width="787" height="559" id="website-antivirus"><defs><linearGradient id="a" x1="50.001%" x2="50.001%" y1="99.999%" y2="-11.28%"><stop offset="0%" stop-color="#70B"></stop><stop offset="52.41%" stop-color="#00008B"></stop><stop offset="100%" stop-color="#00003B"></stop></linearGradient><linearGradient id="b" x1="59.436%" x2="39.717%" y1="3.093%" y2="101.134%"><stop offset="0%" stop-color="#88CFDA"></stop><stop offset=".834%" stop-color="#89CFD9"></stop><stop offset="47.84%" stop-color="#C8D9BB"></stop><stop offset="82.18%" stop-color="#F0DFA7"></stop><stop offset="100%" stop-color="#FFE1A0"></stop></linearGradient><linearGradient id="c" x1="-.011%" x2="100.007%" y1="50.004%" y2="50.004%"><stop offset="0%" stop-color="#A1BAFF"></stop><stop offset="8.88%" stop-color="#ACC2FF"></stop><stop offset="49.88%" stop-color="#D9E3FF"></stop><stop offset="81.6%" stop-color="#F5F7FF"></stop><stop offset="100%" stop-color="#FFF"></stop></linearGradient><linearGradient id="d" x1="-.001%" x2="100.001%" y1="50%" y2="50%"><stop offset="0%" stop-color="#70B"></stop><stop offset="100%" stop-color="#00008B"></stop><stop offset="100%"></stop></linearGradient><linearGradient id="e" x1="-.001%" x2="100.002%" y1="50%" y2="50%"><stop offset="0%" stop-color="#88CFDA"></stop><stop offset=".834%" stop-color="#89CFD9"></stop><stop offset="47.84%" stop-color="#C8D9BB"></stop><stop offset="82.18%" stop-color="#F0DFA7"></stop><stop offset="100%" stop-color="#FFE1A0"></stop></linearGradient><linearGradient id="f" x1="49.998%" x2="49.998%" y1="101.731%" y2="3.845%"><stop offset="0%" stop-color="#009AFF"></stop><stop offset="78.61%" stop-color="#AEFFFF"></stop></linearGradient><linearGradient id="g" x1="-.029%" x2="99.963%" y1="49.957%" y2="49.957%"><stop offset="0%" stop-color="#7A9FFF"></stop><stop offset="78.61%" stop-color="#FFF"></stop></linearGradient><linearGradient id="h" x1=".005%" x2="100.021%" y1="49.991%" y2="49.991%"><stop offset="0%" stop-color="#311A70"></stop><stop offset="100%" stop-color="#639DDB"></stop></linearGradient><linearGradient id="i" x1=".034%" x2="100.002%" y1="49.977%" y2="49.977%"><stop offset="0%" stop-color="#311A70"></stop><stop offset="100%" stop-color="#639DDB"></stop></linearGradient><linearGradient id="j" x1=".003%" x2="99.987%" y1="50.014%" y2="50.014%"><stop offset="0%" stop-color="#7A9FFF"></stop><stop offset="78.61%" stop-color="#FFF"></stop></linearGradient><linearGradient id="k" x1="-.008%" x2="99.993%" y1="50.025%" y2="50.025%"><stop offset="0%" stop-color="#3633B8"></stop><stop offset="78.61%" stop-color="#FFF"></stop></linearGradient><linearGradient id="l" x1="51.923%" x2="47.655%" y1="-.19%" y2="75.788%"><stop offset="0%" stop-color="#7A9FFF"></stop><stop offset="78.61%" stop-color="#FFF"></stop></linearGradient><linearGradient id="m" x1="65.476%" x2="34.137%" y1="29.043%" y2="66.748%"><stop offset="0%" stop-color="#009AFF"></stop><stop offset="78.61%" stop-color="#AEFFFF"></stop></linearGradient><linearGradient id="n" x1="58.922%" x2="43.697%" y1="48.931%" y2="55.951%"><stop offset="0%" stop-color="#009AFF"></stop><stop offset="78.61%" stop-color="#AEFFFF"></stop></linearGradient><linearGradient id="o" x1="-.006%" x2="99.97%" y1="49.991%" y2="49.991%"><stop offset="0%" stop-color="#7A9FFF"></stop><stop offset="78.61%" stop-color="#FFF"></stop></linearGradient><linearGradient id="p" x1="-.015%" x2="100.016%" y1="50.01%" y2="50.01%"><stop offset="0%" stop-color="#311A70"></stop><stop offset="100%" stop-color="#639DDB"></stop></linearGradient><linearGradient id="q" x1="-.013%" x2="100.01%" y1="50.011%" y2="50.011%"><stop offset="0%" stop-color="#311A70"></stop><stop offset="100%" stop-color="#639DDB"></stop></linearGradient><linearGradient id="r" x1="124.423%" x2="-5.478%" y1="9.551%" y2="94.274%"><stop offset="0%" stop-color="#3633B8"></stop><stop offset="78.61%" stop-color="#FFF"></stop></linearGradient><linearGradient id="s" x1=".034%" x2="100.025%" y1="50.003%" y2="50.003%"><stop offset="0%" stop-color="#311A70"></stop><stop offset="100%" stop-color="#639DDB"></stop></linearGradient><linearGradient id="t" x1=".012%" x2="100.002%" y1="49.997%" y2="49.997%"><stop offset="0%" stop-color="#7A9FFF"></stop><stop offset="78.61%" stop-color="#FFF"></stop></linearGradient><linearGradient id="u" x1="-.004%" x2="99.992%" y1="49.998%" y2="49.998%"><stop offset="0%" stop-color="#88CFDA"></stop><stop offset=".834%" stop-color="#89CFD9"></stop><stop offset="47.84%" stop-color="#C8D9BB"></stop><stop offset="82.18%" stop-color="#F0DFA7"></stop><stop offset="100%" stop-color="#FFE1A0"></stop></linearGradient><linearGradient id="v" x1="66.088%" x2="47.349%" y1="46.198%" y2="50.117%"><stop offset="0%" stop-color="#88CFDA"></stop><stop offset=".834%" stop-color="#89CFD9"></stop><stop offset="47.84%" stop-color="#C8D9BB"></stop><stop offset="82.18%" stop-color="#F0DFA7"></stop><stop offset="100%" stop-color="#FFE1A0"></stop></linearGradient><linearGradient id="w" x1="50.01%" x2="50.01%" y1="14.337%" y2="97.792%"><stop offset="0%" stop-color="#241A36"></stop><stop offset="100%" stop-color="#8625DB"></stop></linearGradient><linearGradient id="x" x1="74.66%" x2="18.46%" y1="2.653%" y2="128.938%"><stop offset="0%" stop-color="#7A9FFF"></stop><stop offset="78.61%" stop-color="#FFF"></stop></linearGradient><linearGradient id="y" x1="42.405%" x2="101.259%" y1="16.062%" y2="108.561%"><stop offset="0%" stop-color="#7A9FFF"></stop><stop offset="78.61%" stop-color="#FFF"></stop></linearGradient><linearGradient id="z" x1="99.986%" x2="-.004%" y1="50.014%" y2="50.014%"><stop offset="0%" stop-color="#311A70"></stop><stop offset="100%" stop-color="#81CAE0"></stop></linearGradient><linearGradient id="A" x1="63.453%" x2="34.256%" y1="23.34%" y2="108.73%"><stop offset="0%" stop-color="#31064C"></stop><stop offset="100%" stop-color="#639DDB"></stop></linearGradient><linearGradient id="B" x1="99.983%" x2="-.06%" y1="50.007%" y2="50.007%"><stop offset="0%" stop-color="#270036"></stop><stop offset="59.36%" stop-color="#4F008B"></stop><stop offset="100%" stop-color="#4C24B1"></stop></linearGradient><linearGradient id="C" x1="70.063%" x2="14.451%" y1="90.707%" y2="7.233%"><stop offset="0%" stop-color="#311A70"></stop><stop offset="100%" stop-color="#81CAE0"></stop></linearGradient><linearGradient id="D" x1="81.998%" x2="-17.389%" y1="90.318%" y2="8.218%"><stop offset="0%" stop-color="#4A74BF"></stop><stop offset="78.61%" stop-color="#FFF"></stop></linearGradient><linearGradient id="E" x1="87.091%" x2="6.747%" y1="80.813%" y2="-1.784%"><stop offset="0%" stop-color="#4A74BF"></stop><stop offset="78.61%" stop-color="#FFF"></stop></linearGradient><linearGradient id="F" x1="99.984%" x2="-.027%" y1="49.989%" y2="49.989%"><stop offset="0%" stop-color="#31064C"></stop><stop offset="100%" stop-color="#639DDB"></stop></linearGradient><linearGradient id="G" x1="100%" x2="-.015%" y1="50.01%" y2="50.01%"><stop offset="0%" stop-color="#270036"></stop><stop offset="59.36%" stop-color="#4F008B"></stop><stop offset="100%" stop-color="#4C24B1"></stop></linearGradient><linearGradient id="H" x1=".003%" x2="100.007%" y1="50.015%" y2="50.015%"><stop offset="0%" stop-color="#311A70"></stop><stop offset="100%" stop-color="#639DDB"></stop></linearGradient><linearGradient id="I" x1="70.285%" x2="20.768%" y1="57.281%" y2="32.142%"><stop offset="0%" stop-color="#3633B8"></stop><stop offset="78.61%" stop-color="#FFF"></stop></linearGradient><linearGradient id="J" x1="36.529%" x2="56.378%" y1="9.729%" y2="100.092%"><stop offset="0%" stop-color="#7A9FFF"></stop><stop offset="78.61%" stop-color="#FFF"></stop></linearGradient><linearGradient id="K" x1="92.687%" x2="-.033%" y1="64.282%" y2="38.801%"><stop offset="0%" stop-color="#311A70"></stop><stop offset="100%" stop-color="#639DDB"></stop></linearGradient><linearGradient id="L" x1="90.232%" x2="-1.125%" y1="56.377%" y2="38.45%"><stop offset="0%" stop-color="#7A9FFF"></stop><stop offset="78.61%" stop-color="#FFF"></stop></linearGradient><linearGradient id="M" x1="96.511%" x2="6.814%" y1="54.49%" y2="45.612%"><stop offset="0%" stop-color="#7A9FFF"></stop><stop offset="78.61%" stop-color="#FFF"></stop></linearGradient><linearGradient id="N" x1="-2.414%" x2="85.618%" y1="74.83%" y2="32.58%"><stop offset="0%" stop-color="#3633B8"></stop><stop offset="78.61%" stop-color="#FFF"></stop></linearGradient><linearGradient id="O" x1="97.323%" x2="2.793%" y1="58.38%" y2="42.885%"><stop offset="0%" stop-color="#7A9FFF"></stop><stop offset="78.61%" stop-color="#FFF"></stop></linearGradient><linearGradient id="P" x1="91.993%" x2="7.949%" y1="55.247%" y2="46.302%"><stop offset="0%" stop-color="#7A9FFF"></stop><stop offset="78.61%" stop-color="#FFF"></stop></linearGradient><linearGradient id="Q" x1="100.081%" x2=".64%" y1="59.824%" y2="40.297%"><stop offset="0%" stop-color="#7A9FFF"></stop><stop offset="78.61%" stop-color="#FFF"></stop></linearGradient><linearGradient id="R" x1="100.055%" x2="-.603%" y1="60.702%" y2="38.836%"><stop offset="0%" stop-color="#7A9FFF"></stop><stop offset="78.61%" stop-color="#FFF"></stop></linearGradient><linearGradient id="S" x1="89.591%" x2="6.036%" y1="54.137%" y2="30.075%"><stop offset="0%" stop-color="#7A9FFF"></stop><stop offset="78.61%" stop-color="#FFF"></stop></linearGradient><linearGradient id="T" x1="75.855%" x2="30.392%" y1="58.283%" y2="37.447%"><stop offset="0%" stop-color="#7A9FFF"></stop><stop offset="78.61%" stop-color="#FFF"></stop></linearGradient><linearGradient id="U" x1="5.28%" x2="67.128%" y1="5.444%" y2="90.762%"><stop offset="0%" stop-color="#311A70"></stop><stop offset="100%" stop-color="#639DDB"></stop></linearGradient><linearGradient id="V" x1="88.057%" x2="21.122%" y1="64.026%" y2="43.386%"><stop offset="0%" stop-color="#7A9FFF"></stop><stop offset="78.61%" stop-color="#FFF"></stop></linearGradient><linearGradient id="W" x1="94.871%" x2="-4.008%" y1="68.086%" y2="41.017%"><stop offset="0%" stop-color="#7A9FFF"></stop><stop offset="78.61%" stop-color="#FFF"></stop></linearGradient><linearGradient id="X" x1="53.141%" x2="46.796%" y1="103.301%" y2="-.073%"><stop offset="0%" stop-color="#009AFF"></stop><stop offset="78.61%" stop-color="#AEFFFF"></stop></linearGradient><linearGradient id="Y" x1="61.165%" x2="39.145%" y1="59.439%" y2="49.349%"><stop offset="0%" stop-color="#1DACFF"></stop><stop offset="16.11%" stop-color="#378FD9"></stop><stop offset="34.36%" stop-color="#5073B4"></stop><stop offset="49.15%" stop-color="#5F629D"></stop><stop offset="58.53%" stop-color="#655C95"></stop><stop offset="63.67%" stop-color="#6F5F91"></stop><stop offset="72.3%" stop-color="#896886"></stop><stop offset="83.36%" stop-color="#B37774"></stop><stop offset="96.28%" stop-color="#ED8C5C"></stop><stop offset="100%" stop-color="#FF9254"></stop></linearGradient><linearGradient id="Z" x1="61.15%" x2="39.147%" y1="59.42%" y2="49.332%"><stop offset="0%" stop-color="#7633FF"></stop><stop offset="15.85%" stop-color="#7137FF"></stop><stop offset="35.35%" stop-color="#6243FF"></stop><stop offset="56.76%" stop-color="#4957FF"></stop><stop offset="79.37%" stop-color="#2672FF"></stop><stop offset="100%" stop-color="#0090FF"></stop></linearGradient><linearGradient id="aa" x1="61.549%" x2="42.525%" y1="45.159%" y2="60.43%"><stop offset="0%" stop-color="#311A70"></stop><stop offset="100%" stop-color="#639DDB"></stop></linearGradient><linearGradient id="ab" x1="54.68%" x2="41.903%" y1="48.019%" y2="52.721%"><stop offset="0%" stop-color="#7A9FFF"></stop><stop offset="78.61%" stop-color="#FFF"></stop></linearGradient><linearGradient id="ac" x1="77.022%" x2="23.194%" y1="9.821%" y2="111.498%"><stop offset="0%" stop-color="#7A9FFF"></stop><stop offset="78.61%" stop-color="#FFF"></stop></linearGradient><linearGradient id="ad" x1="50.011%" x2="50.011%" y1="14.344%" y2="97.787%"><stop offset="0%" stop-color="#241A36"></stop><stop offset="100%" stop-color="#8625DB"></stop></linearGradient><linearGradient id="ae" x1="25.319%" x2="81.519%" y1="2.666%" y2="128.951%"><stop offset="0%" stop-color="#7A9FFF"></stop><stop offset="78.61%" stop-color="#FFF"></stop></linearGradient><linearGradient id="af" x1="55.88%" x2="1.962%" y1="21.138%" y2="110.463%"><stop offset="0%" stop-color="#7A9FFF"></stop><stop offset="78.61%" stop-color="#FFF"></stop></linearGradient><linearGradient id="ag" x1=".012%" x2="100.001%" y1="50.014%" y2="50.014%"><stop offset="0%" stop-color="#311A70"></stop><stop offset="100%" stop-color="#81CAE0"></stop></linearGradient><linearGradient id="ah" x1="73.017%" x2="41.083%" y1="67.37%" y2="45.634%"><stop offset="0%" stop-color="#31064C"></stop><stop offset="100%" stop-color="#639DDB"></stop></linearGradient><linearGradient id="ai" x1=".014%" x2="100.058%" y1="50.007%" y2="50.007%"><stop offset="0%" stop-color="#270036"></stop><stop offset="59.36%" stop-color="#4F008B"></stop><stop offset="100%" stop-color="#4C24B1"></stop></linearGradient><linearGradient id="aj" x1="13.35%" x2="76.853%" y1="83.48%" y2="41.242%"><stop offset="0%" stop-color="#311A70"></stop><stop offset="100%" stop-color="#81CAE0"></stop></linearGradient><linearGradient id="ak" x1="17.999%" x2="117.386%" y1="90.318%" y2="8.219%"><stop offset="0%" stop-color="#4A74BF"></stop><stop offset="78.61%" stop-color="#FFF"></stop></linearGradient><linearGradient id="al" x1="12.906%" x2="93.251%" y1="80.814%" y2="-1.783%"><stop offset="0%" stop-color="#4A74BF"></stop><stop offset="78.61%" stop-color="#FFF"></stop></linearGradient><linearGradient id="am" x1="55.746%" x2="33.14%" y1="44.01%" y2="52.528%"><stop offset="0%" stop-color="#31064C"></stop><stop offset="100%" stop-color="#639DDB"></stop></linearGradient><linearGradient id="an" x1="-.001%" x2="100.014%" y1="50.011%" y2="50.011%"><stop offset="0%" stop-color="#270036"></stop><stop offset="59.36%" stop-color="#4F008B"></stop><stop offset="100%" stop-color="#4C24B1"></stop></linearGradient><linearGradient id="ao" x1=".004%" x2="100.036%" y1="50.035%" y2="50.035%"><stop offset="0%" stop-color="#311A70"></stop><stop offset="100%" stop-color="#639DDB"></stop></linearGradient><linearGradient id="ap" x1="-.002%" x2="100.006%" y1="49.991%" y2="49.991%"><stop offset="0%" stop-color="#7A9FFF"></stop><stop offset="78.61%" stop-color="#FFF"></stop></linearGradient><linearGradient id="aq" x1=".015%" x2="100.015%" y1="49.998%" y2="49.998%"><stop offset="0%" stop-color="#7A9FFF"></stop><stop offset="78.61%" stop-color="#FFF"></stop></linearGradient><linearGradient id="ar" x1="74.768%" x2="-11.454%" y1="71.38%" y2="2.537%"><stop offset="0%" stop-color="#3633B8"></stop><stop offset="78.61%" stop-color="#FFF"></stop></linearGradient><linearGradient id="as" x1=".018%" x2="100.022%" y1="50.036%" y2="50.036%"><stop offset="0%" stop-color="#7A9FFF"></stop><stop offset="78.61%" stop-color="#FFF"></stop></linearGradient><linearGradient id="at" x1="-.02%" x2="99.951%" y1="49.832%" y2="49.832%"><stop offset="0%" stop-color="#7A9FFF"></stop><stop offset="78.61%" stop-color="#FFF"></stop></linearGradient><linearGradient id="au" x1=".008%" x2="99.959%" y1="49.987%" y2="49.987%"><stop offset="0%" stop-color="#7A9FFF"></stop><stop offset="78.61%" stop-color="#FFF"></stop></linearGradient><linearGradient id="av" x1=".052%" x2="100.04%" y1="50.032%" y2="50.032%"><stop offset="0%" stop-color="#7A9FFF"></stop><stop offset="78.61%" stop-color="#FFF"></stop></linearGradient><linearGradient id="aw" x1="-.02%" x2="99.991%" y1="49.956%" y2="49.956%"><stop offset="0%" stop-color="#7A9FFF"></stop><stop offset="78.61%" stop-color="#FFF"></stop></linearGradient><linearGradient id="ax" x1=".044%" x2="100.007%" y1="50.016%" y2="50.016%"><stop offset="0%" stop-color="#7A9FFF"></stop><stop offset="78.61%" stop-color="#FFF"></stop></linearGradient><linearGradient id="ay" x1="129.262%" x2="23.635%" y1="17.757%" y2="84.674%"><stop offset="0%" stop-color="#311A70"></stop><stop offset="100%" stop-color="#639DDB"></stop></linearGradient><linearGradient id="az" x1=".038%" x2="99.999%" y1="50.032%" y2="50.032%"><stop offset="0%" stop-color="#7A9FFF"></stop><stop offset="78.61%" stop-color="#FFF"></stop></linearGradient><linearGradient id="aA" x1=".031%" x2="99.971%" y1="49.964%" y2="49.964%"><stop offset="0%" stop-color="#7A9FFF"></stop><stop offset="78.61%" stop-color="#FFF"></stop></linearGradient><linearGradient id="aB" x1="38.298%" x2="61.487%" y1="102.94%" y2="-.102%"><stop offset="0%" stop-color="#009AFF"></stop><stop offset="78.61%" stop-color="#AEFFFF"></stop></linearGradient><linearGradient id="aC" x1="43.11%" x2="57.489%" y1="51.395%" y2="49.644%"><stop offset="0%" stop-color="#1DACFF"></stop><stop offset="16.11%" stop-color="#378FD9"></stop><stop offset="34.36%" stop-color="#5073B4"></stop><stop offset="49.15%" stop-color="#5F629D"></stop><stop offset="58.53%" stop-color="#655C95"></stop><stop offset="63.67%" stop-color="#6F5F91"></stop><stop offset="72.3%" stop-color="#896886"></stop><stop offset="83.36%" stop-color="#B37774"></stop><stop offset="96.28%" stop-color="#ED8C5C"></stop><stop offset="100%" stop-color="#FF9254"></stop></linearGradient><linearGradient id="aD" x1="-.034%" x2="100.004%" y1="50.004%" y2="50.004%"><stop offset="0%" stop-color="#7633FF"></stop><stop offset="15.85%" stop-color="#7137FF"></stop><stop offset="35.35%" stop-color="#6243FF"></stop><stop offset="56.76%" stop-color="#4957FF"></stop><stop offset="79.37%" stop-color="#2672FF"></stop><stop offset="100%" stop-color="#0090FF"></stop></linearGradient><linearGradient id="aE" x1="44.711%" x2="53.405%" y1="43.465%" y2="61.497%"><stop offset="0%" stop-color="#311A70"></stop><stop offset="100%" stop-color="#639DDB"></stop></linearGradient><linearGradient id="aF" x1="47.842%" x2="53.68%" y1="47.36%" y2="53.339%"><stop offset="0%" stop-color="#7A9FFF"></stop><stop offset="78.61%" stop-color="#FFF"></stop></linearGradient><linearGradient id="aG" x1="0%" x2="100.009%" y1="50%" y2="50%"><stop offset="0%" stop-color="#A1BAFF"></stop><stop offset="8.88%" stop-color="#ACC2FF"></stop><stop offset="49.88%" stop-color="#D9E3FF"></stop><stop offset="81.6%" stop-color="#F5F7FF"></stop><stop offset="100%" stop-color="#FFF"></stop></linearGradient><linearGradient id="aH" x1="-1.243%" x2="97.849%" y1="38.962%" y2="58.122%"><stop offset="0%" stop-color="#70B"></stop><stop offset="100%" stop-color="#00008B"></stop><stop offset="100%"></stop></linearGradient><linearGradient id="aI" x1="3.255%" x2="103.123%" y1="35.317%" y2="58.21%"><stop offset="0%" stop-color="#70B"></stop><stop offset="100%" stop-color="#00008B"></stop><stop offset="100%"></stop></linearGradient><linearGradient id="aK" x1="97.863%" x2="-40.825%" y1="18.785%" y2="87.955%"><stop offset="0%" stop-color="#70B"></stop><stop offset="95.72%"></stop></linearGradient><linearGradient id="aL" x1="28.033%" x2="63.738%" y1="37.748%" y2="53.798%"><stop offset="0%" stop-color="#70B"></stop><stop offset="100%" stop-color="#00008B"></stop><stop offset="100%"></stop></linearGradient><linearGradient id="aN" x1="33.344%" x2="140.125%" y1="38.617%" y2="87.695%"><stop offset="0%" stop-color="#70B"></stop><stop offset="95.72%"></stop></linearGradient><linearGradient id="aO" x1="36.038%" x2="59.224%" y1="40.888%" y2="59.128%"><stop offset="0%" stop-color="#70B"></stop><stop offset="100%" stop-color="#00008B"></stop><stop offset="100%"></stop></linearGradient><linearGradient id="aP" x1="22.163%" x2="93.391%" y1="60.552%" y2="40.613%"><stop offset="0%" stop-color="#70B"></stop><stop offset="100%" stop-color="#00008B"></stop><stop offset="100%"></stop></linearGradient><linearGradient id="aQ" x1="8.663%" x2="53.352%" y1="6.036%" y2="61.708%"><stop offset="0%" stop-color="#70B"></stop><stop offset="100%" stop-color="#00008B"></stop><stop offset="100%"></stop></linearGradient><linearGradient id="aR" x1="96.363%" x2="-5.405%" y1="48.716%" y2="52.717%"><stop offset="0%" stop-color="#70B"></stop><stop offset="100%" stop-color="#00008B"></stop><stop offset="100%"></stop></linearGradient><linearGradient id="aS" x1="59.607%" x2="47.265%" y1="8.538%" y2="70.816%"><stop offset="0%" stop-color="#A1BAFF"></stop><stop offset="14.15%" stop-color="#A6BEFF"></stop><stop offset="32.12%" stop-color="#B6CAFF"></stop><stop offset="52.14%" stop-color="#D0DDFF"></stop><stop offset="73.52%" stop-color="#F4F7FF"></stop><stop offset="79.19%" stop-color="#FFF"></stop></linearGradient><linearGradient id="aT" x1="5.287%" x2="96.109%" y1="84.886%" y2="20.139%"><stop offset="0%" stop-color="#70B"></stop><stop offset="100%" stop-color="#00008B"></stop><stop offset="100%"></stop></linearGradient><linearGradient id="aU" x1="-5.327%" x2="92.489%" y1="79.056%" y2="2.317%"><stop offset="0%" stop-color="#70B"></stop><stop offset="100%" stop-color="#00008B"></stop><stop offset="100%"></stop></linearGradient><linearGradient id="aW" x1="55.416%" x2="44.296%" y1="-10.041%" y2="139.592%"><stop offset="0%" stop-color="#70B"></stop><stop offset="95.72%"></stop></linearGradient><linearGradient id="aX" x1="38.627%" x2="59.465%" y1="72.696%" y2="41.959%"><stop offset="0%" stop-color="#70B"></stop><stop offset="100%" stop-color="#00008B"></stop><stop offset="100%"></stop></linearGradient><linearGradient id="aZ" x1="23.155%" x2="146.949%" y1="68.199%" y2="1.548%"><stop offset="0%" stop-color="#70B"></stop><stop offset="95.72%"></stop></linearGradient><linearGradient id="ba" x1="29.826%" x2="76.6%" y1="62.833%" y2="43.208%"><stop offset="0%" stop-color="#70B"></stop><stop offset="100%" stop-color="#00008B"></stop><stop offset="100%"></stop></linearGradient><linearGradient id="bb" x1="34.461%" x2="61.233%" y1="83.662%" y2="-1.776%"><stop offset="0%" stop-color="#70B"></stop><stop offset="100%" stop-color="#00008B"></stop><stop offset="100%"></stop></linearGradient><linearGradient id="bc" x1="-13.757%" x2="67.429%" y1="49.84%" y2="50.35%"><stop offset="0%" stop-color="#70B"></stop><stop offset="100%" stop-color="#00008B"></stop><stop offset="100%"></stop></linearGradient><linearGradient id="bd" x1="66.583%" x2="10.306%" y1="-6.19%" y2="102.693%"><stop offset="0%" stop-color="#70B"></stop><stop offset="100%" stop-color="#00008B"></stop><stop offset="100%"></stop></linearGradient><linearGradient id="be" x1="4.91%" x2="65.138%" y1="18.704%" y2="57.931%"><stop offset="0%" stop-color="#A1BAFF"></stop><stop offset="14.15%" stop-color="#A6BEFF"></stop><stop offset="32.12%" stop-color="#B6CAFF"></stop><stop offset="52.14%" stop-color="#D0DDFF"></stop><stop offset="73.52%" stop-color="#F4F7FF"></stop><stop offset="79.19%" stop-color="#FFF"></stop></linearGradient><linearGradient id="bf" x1="94.616%" x2="3.765%" y1="84.686%" y2="19.866%"><stop offset="0%" stop-color="#70B"></stop><stop offset="100%" stop-color="#00008B"></stop><stop offset="100%"></stop></linearGradient><linearGradient id="bg" x1="105.295%" x2="7.44%" y1="78.876%" y2="2.094%"><stop offset="0%" stop-color="#70B"></stop><stop offset="100%" stop-color="#00008B"></stop><stop offset="100%"></stop></linearGradient><linearGradient id="bi" x1="44.543%" x2="55.669%" y1="-10.254%" y2="139.435%"><stop offset="0%" stop-color="#70B"></stop><stop offset="95.72%"></stop></linearGradient><linearGradient id="bj" x1="61.256%" x2="40.381%" y1="72.003%" y2="41.233%"><stop offset="0%" stop-color="#70B"></stop><stop offset="100%" stop-color="#00008B"></stop><stop offset="100%"></stop></linearGradient><linearGradient id="bl" x1="76.742%" x2="-47.014%" y1="68.04%" y2="1.438%"><stop offset="0%" stop-color="#70B"></stop><stop offset="95.72%"></stop></linearGradient><linearGradient id="bm" x1="70.001%" x2="23.243%" y1="62.4%" y2="42.832%"><stop offset="0%" stop-color="#70B"></stop><stop offset="100%" stop-color="#00008B"></stop><stop offset="100%"></stop></linearGradient><linearGradient id="bn" x1="65.509%" x2="38.735%" y1="83.555%" y2="-1.88%"><stop offset="0%" stop-color="#70B"></stop><stop offset="100%" stop-color="#00008B"></stop><stop offset="100%"></stop></linearGradient><linearGradient id="bo" x1="113.64%" x2="32.416%" y1="49.663%" y2="50.173%"><stop offset="0%" stop-color="#70B"></stop><stop offset="100%" stop-color="#00008B"></stop><stop offset="100%"></stop></linearGradient><linearGradient id="bp" x1="33.409%" x2="89.683%" y1="-6.262%" y2="102.62%"><stop offset="0%" stop-color="#70B"></stop><stop offset="100%" stop-color="#00008B"></stop><stop offset="100%"></stop></linearGradient><linearGradient id="bq" x1="94.982%" x2="34.735%" y1="18.363%" y2="57.619%"><stop offset="0%" stop-color="#A1BAFF"></stop><stop offset="14.15%" stop-color="#A6BEFF"></stop><stop offset="32.12%" stop-color="#B6CAFF"></stop><stop offset="52.14%" stop-color="#D0DDFF"></stop><stop offset="73.52%" stop-color="#F4F7FF"></stop><stop offset="79.19%" stop-color="#FFF"></stop></linearGradient><linearGradient id="br" x1="94.615%" x2="3.737%" y1="84.893%" y2="20.03%"><stop offset="0%" stop-color="#70B"></stop><stop offset="100%" stop-color="#00008B"></stop><stop offset="100%"></stop></linearGradient><linearGradient id="bs" x1="105.327%" x2="7.471%" y1="79.055%" y2="2.286%"><stop offset="0%" stop-color="#70B"></stop><stop offset="100%" stop-color="#00008B"></stop><stop offset="100%"></stop></linearGradient><linearGradient id="bu" x1="44.539%" x2="55.655%" y1="-10.139%" y2="139.514%"><stop offset="0%" stop-color="#70B"></stop><stop offset="95.72%"></stop></linearGradient><linearGradient id="bv" x1="61.329%" x2="40.436%" y1="72.472%" y2="41.702%"><stop offset="0%" stop-color="#70B"></stop><stop offset="100%" stop-color="#00008B"></stop><stop offset="100%"></stop></linearGradient><linearGradient id="bx" x1="76.753%" x2="-47.015%" y1="68.137%" y2="1.582%"><stop offset="0%" stop-color="#70B"></stop><stop offset="95.72%"></stop></linearGradient><linearGradient id="by" x1="70.052%" x2="23.261%" y1="62.671%" y2="43.035%"><stop offset="0%" stop-color="#70B"></stop><stop offset="100%" stop-color="#00008B"></stop><stop offset="100%"></stop></linearGradient><linearGradient id="bz" x1="65.526%" x2="38.758%" y1="83.638%" y2="-1.792%"><stop offset="0%" stop-color="#70B"></stop><stop offset="100%" stop-color="#00008B"></stop><stop offset="100%"></stop></linearGradient><linearGradient id="bA" x1="113.743%" x2="32.504%" y1="49.801%" y2="50.312%"><stop offset="0%" stop-color="#70B"></stop><stop offset="100%" stop-color="#00008B"></stop><stop offset="100%"></stop></linearGradient><linearGradient id="bB" x1="33.419%" x2="89.723%" y1="-6.163%" y2="102.728%"><stop offset="0%" stop-color="#70B"></stop><stop offset="100%" stop-color="#00008B"></stop><stop offset="100%"></stop></linearGradient><linearGradient id="bC" x1="95.033%" x2="34.785%" y1="18.629%" y2="57.919%"><stop offset="0%" stop-color="#A1BAFF"></stop><stop offset="14.15%" stop-color="#A6BEFF"></stop><stop offset="32.12%" stop-color="#B6CAFF"></stop><stop offset="52.14%" stop-color="#D0DDFF"></stop><stop offset="73.52%" stop-color="#F4F7FF"></stop><stop offset="79.19%" stop-color="#FFF"></stop></linearGradient><radialGradient id="aJ" cx="50.364%" cy="49.189%" r="75.051%" fx="50.364%" fy="49.189%"><stop offset="0%" stop-color="#FFF"></stop><stop offset="15.6%" stop-color="#FEFDFE"></stop><stop offset="24.53%" stop-color="#F9F4F9"></stop><stop offset="31.77%" stop-color="#F0E6F1"></stop><stop offset="38.11%" stop-color="#E4D3E6"></stop><stop offset="43.86%" stop-color="#D5B9D7"></stop><stop offset="49.19%" stop-color="#C199C5"></stop><stop offset="54.19%" stop-color="#AB73AF"></stop><stop offset="58.93%" stop-color="#904896"></stop><stop offset="63.3%" stop-color="#73187B"></stop><stop offset="65.24%" stop-color="#65006D"></stop></radialGradient><radialGradient id="aM" cx="50.502%" cy="49.022%" r="68.903%" fx="50.502%" fy="49.022%" gradientTransform="matrix(.95083 .3094 -.30971 .94988 .176 -.132)"><stop offset="0%" stop-color="#FFF"></stop><stop offset="15.6%" stop-color="#FEFDFE"></stop><stop offset="24.53%" stop-color="#F9F4F9"></stop><stop offset="31.77%" stop-color="#F0E6F1"></stop><stop offset="38.11%" stop-color="#E4D3E6"></stop><stop offset="43.86%" stop-color="#D5B9D7"></stop><stop offset="49.19%" stop-color="#C199C5"></stop><stop offset="54.19%" stop-color="#AB73AF"></stop><stop offset="58.93%" stop-color="#904896"></stop><stop offset="63.3%" stop-color="#73187B"></stop><stop offset="65.24%" stop-color="#65006D"></stop></radialGradient><radialGradient id="aV" cx="50.138%" cy="51.01%" r="75.029%" fx="50.138%" fy="51.01%"><stop offset="0%" stop-color="#FFF"></stop><stop offset="15.6%" stop-color="#FEFDFE"></stop><stop offset="24.53%" stop-color="#F9F4F9"></stop><stop offset="31.77%" stop-color="#F0E6F1"></stop><stop offset="38.11%" stop-color="#E4D3E6"></stop><stop offset="43.86%" stop-color="#D5B9D7"></stop><stop offset="49.19%" stop-color="#C199C5"></stop><stop offset="54.19%" stop-color="#AB73AF"></stop><stop offset="58.93%" stop-color="#904896"></stop><stop offset="63.3%" stop-color="#73187B"></stop><stop offset="65.24%" stop-color="#65006D"></stop></radialGradient><radialGradient id="aY" cx="50.235%" cy="51.276%" r="68.934%" fx="50.235%" fy="51.276%"><stop offset="0%" stop-color="#FFF"></stop><stop offset="15.6%" stop-color="#FEFDFE"></stop><stop offset="24.53%" stop-color="#F9F4F9"></stop><stop offset="31.77%" stop-color="#F0E6F1"></stop><stop offset="38.11%" stop-color="#E4D3E6"></stop><stop offset="43.86%" stop-color="#D5B9D7"></stop><stop offset="49.19%" stop-color="#C199C5"></stop><stop offset="54.19%" stop-color="#AB73AF"></stop><stop offset="58.93%" stop-color="#904896"></stop><stop offset="63.3%" stop-color="#73187B"></stop><stop offset="65.24%" stop-color="#65006D"></stop></radialGradient><radialGradient id="bh" cx="49.651%" cy="50.44%" r="75.114%" fx="49.651%" fy="50.44%" gradientTransform="matrix(-.76478 -.64406 .64429 -.76452 .551 1.21)"><stop offset="0%" stop-color="#FFF"></stop><stop offset="15.6%" stop-color="#FEFDFE"></stop><stop offset="24.53%" stop-color="#F9F4F9"></stop><stop offset="31.77%" stop-color="#F0E6F1"></stop><stop offset="38.11%" stop-color="#E4D3E6"></stop><stop offset="43.86%" stop-color="#D5B9D7"></stop><stop offset="49.19%" stop-color="#C199C5"></stop><stop offset="54.19%" stop-color="#AB73AF"></stop><stop offset="58.93%" stop-color="#904896"></stop><stop offset="63.3%" stop-color="#73187B"></stop><stop offset="65.24%" stop-color="#65006D"></stop></radialGradient><radialGradient id="bk" cx="49.51%" cy="50.567%" r="68.933%" fx="49.51%" fy="50.567%" gradientTransform="scale(-.99875 -1) rotate(40.112 1.385 -1.357)"><stop offset="0%" stop-color="#FFF"></stop><stop offset="15.6%" stop-color="#FEFDFE"></stop><stop offset="24.53%" stop-color="#F9F4F9"></stop><stop offset="31.77%" stop-color="#F0E6F1"></stop><stop offset="38.11%" stop-color="#E4D3E6"></stop><stop offset="43.86%" stop-color="#D5B9D7"></stop><stop offset="49.19%" stop-color="#C199C5"></stop><stop offset="54.19%" stop-color="#AB73AF"></stop><stop offset="58.93%" stop-color="#904896"></stop><stop offset="63.3%" stop-color="#73187B"></stop><stop offset="65.24%" stop-color="#65006D"></stop></radialGradient><radialGradient id="bt" cx="49.781%" cy="50.778%" r="75.097%" fx="49.781%" fy="50.778%" gradientTransform="matrix(-.76412 -.64429 .64373 -.76478 .551 1.217)"><stop offset="0%" stop-color="#FFF"></stop><stop offset="15.6%" stop-color="#FEFDFE"></stop><stop offset="24.53%" stop-color="#F9F4F9"></stop><stop offset="31.77%" stop-color="#F0E6F1"></stop><stop offset="38.11%" stop-color="#E4D3E6"></stop><stop offset="43.86%" stop-color="#D5B9D7"></stop><stop offset="49.19%" stop-color="#C199C5"></stop><stop offset="54.19%" stop-color="#AB73AF"></stop><stop offset="58.93%" stop-color="#904896"></stop><stop offset="63.3%" stop-color="#73187B"></stop><stop offset="65.24%" stop-color="#65006D"></stop></radialGradient><radialGradient id="bw" cx="49.602%" cy="51.081%" r="68.933%" fx="49.602%" fy="51.081%" gradientTransform="scale(-.99899 -1) rotate(40.112 1.399 -1.36)"><stop offset="0%" stop-color="#FFF"></stop><stop offset="15.6%" stop-color="#FEFDFE"></stop><stop offset="24.53%" stop-color="#F9F4F9"></stop><stop offset="31.77%" stop-color="#F0E6F1"></stop><stop offset="38.11%" stop-color="#E4D3E6"></stop><stop offset="43.86%" stop-color="#D5B9D7"></stop><stop offset="49.19%" stop-color="#C199C5"></stop><stop offset="54.19%" stop-color="#AB73AF"></stop><stop offset="58.93%" stop-color="#904896"></stop><stop offset="63.3%" stop-color="#73187B"></stop><stop offset="65.24%" stop-color="#65006D"></stop></radialGradient></defs><g fill="none"><path fill="url(#a)" d="M752.09 553.32s82.42-106.41-8.85-197.64c-59.09-59.06-77.19-71.01-84.41-101.92C643.31 187.3 586.63.5 421.73.5 143 .5 119.96 287.02 119.96 287.02S40.21 302.37 10.51 408.03C-17.63 508.15 22.3 558.25 22.3 558.25l729.79-4.93Z"></path><g fill="#FFF"><g transform="translate(181 75)"><circle cx="131.02" cy="2.89" r="2.15"></circle><path d="M209.04 67.37a1.06 1.06 0 1 1-1.06-1.06c.58 0 1.06.48 1.06 1.06ZM82.67 85.53c0 1.6-1.3 2.9-2.9 2.9-1.6 0-2.9-1.3-2.9-2.9 0-1.6 1.3-2.9 2.9-2.9 1.6 0 2.9 1.3 2.9 2.9ZM4.7 72.03c0 1.23-1 2.23-2.23 2.23s-2.23-1-2.23-2.23 1-2.23 2.23-2.23 2.23 1 2.23 2.23ZM199.63 8.58c0 1.12-.91 2.03-2.03 2.03-1.12 0-2.03-.91-2.03-2.03 0-1.12.91-2.03 2.03-2.03 1.12 0 2.03.91 2.03 2.03Z"></path></g><g transform="translate(333 53)"><circle cx="130.81" cy="2.76" r="2.15"></circle><path d="M208.83 67.25a1.06 1.06 0 1 1-1.06-1.06c.59-.01 1.06.47 1.06 1.06ZM82.47 85.41c0 1.6-1.3 2.9-2.9 2.9-1.6 0-2.9-1.3-2.9-2.9 0-1.6 1.3-2.9 2.9-2.9a2.89 2.89 0 0 1 2.9 2.9ZM4.5 71.9c0 1.23-1 2.23-2.23 2.23s-2.23-1-2.23-2.23 1-2.23 2.23-2.23 2.23 1 2.23 2.23ZM199.42 8.46c0 1.12-.91 2.03-2.03 2.03-1.12 0-2.03-.91-2.03-2.03 0-1.12.91-2.03 2.03-2.03 1.12-.01 2.03.9 2.03 2.03Z"></path></g></g><ellipse cx="559.02" cy="199.92" fill="#B3EFFF" rx="3.14" ry="3.11"></ellipse><path fill="url(#b)" d="M467.33 76.31c11.35 11.41 29.8 11.45 41.2.11 11.41-11.35 11.45-29.79.11-41.2-11.35-11.41-29.8-11.45-41.2-.1-11.41 11.34-11.46 29.79-.11 41.19Z"></path><path fill="url(#c)" d="M309.46 77.44c-2.19 0-4.25.6-6 1.65-.42-6.12-5.51-10.95-11.73-10.95-1.34 0-2.63.24-3.83.66-1.73-5.6-6.96-9.68-13.13-9.68-.46 0-.92.03-1.37.07-5.77.36-10.57 4.27-12.24 9.58-1.21-.42-2.5-.66-3.85-.66-6.22 0-11.31 4.83-11.73 10.95a11.667 11.667 0 0 0-6-1.65c-6.5 0-11.76 5.27-11.76 11.76 0 6.5 5.27 11.76 11.76 11.76.43 0 .86-.03 1.28-.07h18.06c.53.06 1.06.1 1.61.1.47 0 .94-.02 1.4-.07h25.79c.26.01.52.04.79.04s.53-.03.79-.04h18.88c.42.05.85.07 1.28.07 6.5 0 11.76-5.27 11.76-11.76.01-6.49-5.26-11.76-11.76-11.76Z" opacity=".3"></path><path fill="url(#d)" d="M372.94 90.88 187.37.33h-.88L.91 90.88s-1.68 81.61 3.91 125.77C11.03 265.7 35 360.3 90.34 416.76c55.34 56.46 96.14 64.84 96.14 64.84h.88s40.8-8.38 96.14-64.84 79.31-151.06 85.52-200.11c5.6-44.16 3.92-125.77 3.92-125.77Z" transform="translate(209 55)"></path><path fill="#5700AE" d="M549.94 164.14 394.31 88.2h-.74l-155.63 75.94s-1.41 68.44 3.28 105.47c5.21 41.14 25.31 120.47 71.72 167.82 46.41 47.35 80.63 54.38 80.63 54.38h.74s34.22-7.03 80.63-54.38 66.51-126.68 71.72-167.82c4.69-37.03 3.28-105.47 3.28-105.47Z"></path><path fill="url(#e)" d="M.91 90.88s-1.68 81.61 3.91 125.77C11.03 265.7 35 360.3 90.34 416.76c55.34 56.46 96.14 64.84 96.14 64.84V.33L.91 90.88Z" opacity=".2" transform="translate(209 55)"></path><path fill="url(#f)" d="M19.47 173.18S23.19 8.12 22.84 5.86C22.49 3.6 21.75.72 21.75.72s-1.58 2.57-2.09 6.24C19.16 10.63 10 173.7 10 173.7l9.47-.52Z" transform="translate(285 153)"></path><path fill="#FFF" d="m306.76 153.72-8.61 172.81h-5.62l11.24-167.94z"></path><path fill="#000" d="M366.66 421.48s-1 9.9-.76 16.82c.25 6.92 2.22 16.8 2.22 16.8s2.47-3.46 11.12-2.22c8.65 1.24 8.89 3.71 8.89 3.71s8.65-20.26 10.38-27.18c1.73-6.92 4.45-12.11 4.45-12.11s-3.21-5.44-4.69-8.65c-1.48-3.21-2.47-6.18-2.47-6.18l-11.75 22.96c0 .01-10.72-.49-17.39-3.95ZM407 424.38s5.85 19.48 8.69 25.28c2.84 5.81 5.44 8.89 5.44 8.89s2.97-4.2 7.78-5.44c4.82-1.24 8.9-1.73 8.9-1.73s-18.87-12.63-30.81-27Z"></path><path fill="url(#g)" d="M136.13 201.56s-.86 2.35-.37 5.56c.49 3.21 1.98 5.44 1.98 5.44s6.42 3.21 12.35 1.36c5.93-1.85 6.92-5.06 6.92-5.06s1.36-3.21.99-6.92c-.37-3.71-.62-4.32-.62-4.32l-4.57-3.21c-.01-.01-14.34.85-16.68 7.15Z" transform="translate(285 257)"></path><path fill="url(#h)" d="M137.73 212.56s-.37 6.67 1.98 12.48c2.35 5.81 8.52 17.67 11.61 26.07 3.09 8.4 3.83 16.55 4.57 20.88.74 4.32.12 6.42.12 6.42s3.83 1.61 7.78.99c3.95-.62 8.03-3.71 8.03-3.71l-2.47-8.65s-3.83-12.48-3.83-18.78c0-6.3-1.61-26.19-3.83-30.76-2.22-4.57-4.69-8.65-4.69-8.65s-3.34 4.69-7.66 5.44c-4.32.74-9.51-.38-11.61-1.73Z" transform="translate(285 257)"></path><path fill="#FFF" d="M432.36 451.61s3.51 8.43 3.86 10.89c.35 2.46 1.05 7.73 1.05 7.73l13.7 65.7 4.36-2.39-5.76-25.72-3.51-31.97-4.06-10s-.5-7.21-.5-9.32c0-2.11-3.7-5.13-3.7-5.13" opacity=".4"></path><path fill="#000" d="M441.02 535.4s-2.35 4.32-3.58 5.81c-1.24 1.48-4.45 6.05-4.57 8.28-.12 2.22 3.09 5.68 3.09 5.68s3.95 1.36 12.35.12c8.4-1.24 10.99-4.45 11.37-6.67.37-2.22-.12-5.06-.74-7.17-.62-2.1-3.58-7.91-3.58-7.91s-4.95 2.83-7.04 2.97c-3.85.25-7.3-1.11-7.3-1.11Z"></path><path fill="url(#i)" d="M110.8 145.48s-5.19 12.6-7.17 18.78l-1.98 6.18s-9.39-.49-14.83-2.47c-5.43-1.98-12.9-8.83-12.9-8.83s5.49-17.85 8.46-25.51c2.96-7.66 5.93-11.86 5.93-11.86s5.19 6.67 11.37 8.4c6.18 1.73 7.66 1.98 7.66 1.98s1.98 11.1 3.46 13.33Z" transform="translate(285 257)"></path><path fill="#FFF" d="m386.66 427.43 1.98-6.18c1.98-6.18 7.17-18.78 7.17-18.78-.45-.68-.95-2.19-1.43-3.96l-10.32 26.92s-4.22-.26-10.8-2.64c-5.17-1.86-11.31-6.64-13.72-8.61-.38 1.21-.6 1.94-.6 1.94s7.47 6.86 12.9 8.83c5.43 1.99 14.82 2.48 14.82 2.48Z"></path><path fill="#000" d="M354.66 313.9s-12.23 10.5-13.22 12.85c-.99 2.35-1.73 4.32-1.73 4.32s-5.56 2.47-8.89 5.68c-3.34 3.21-5.68 7.16-5.68 7.16s11.86 4.32 12.11 8.15 0 9.51 0 9.51 2.84-2.35 5.07-4.69c2.22-2.35 3.34-1.66 4.45-2.97 2.27-2.68 6.3-5.93 8.15-8.52 1.85-2.59 2.35-3.46 3.09-3.46.74 0 2.22.08 2.22.08l4.2-13.18-3.95-15.32-5.82.39Z"></path><path fill="url(#j)" d="M88.32 121.76s3.21-6.09 3.21-8.24c0-2.14-.49-8.07-1.98-9.88-1.48-1.81-5.76-5.6-7.58-8.24-1.81-2.64-6.75-10.38-6.75-10.38s2.31-7.25 2.31-7.91c0-.66 5.27-28.66 5.27-28.66s15.48 8.24 25.7 2.8c10.21-5.44 17.38-16.72 17.38-16.72l18.37 16.39 13.34 70.33-40.19 12.68-10.05-1.81c-.01.01-11.54-1.14-19.03-10.36Z" transform="translate(285 257)"></path><path fill="url(#k)" d="M124.97 34.29s7.5-3.79 20.59-.16c15.48 4.28 22.4 17.62 22.4 17.62s-8.07-.33-14.33-.66-12.83.36-12.83.36-8.41-4.81-10.39-6.45c-1.98-1.65-3.46-4.61-3.46-4.61l-1.98-6.1Z" transform="translate(285 257)"></path><path fill="url(#l)" d="M92.25 62.72s28.17-11.04 47.77-12.52c19.6-1.48 42.3 7.56 42.3 7.56s7.95 64.33 4.39 89.38c-4.78 33.6-23.89 50.55-23.89 50.55s-39.11-17.93-51.22-44.37c-12.1-26.44-19.35-90.6-19.35-90.6Z" transform="translate(285 257)"></path><path fill="#FFF" d="M380.15 320.78s28.17-11.04 47.77-12.52c19.6-1.48 42.83 3.95 42.83 3.95s7.43 67.93 3.87 92.98c-4.78 33.6-25.12 53.78-25.12 53.78s-37.88-21.17-49.99-47.6c-12.11-26.44-19.36-90.59-19.36-90.59Z"></path><path fill="url(#m)" d="M96.47 65.51s27.39-10.73 46.45-12.17c19.06-1.44 41.64 3.84 41.64 3.84s7.23 66.06 3.76 90.41c-4.65 32.67-24.43 52.29-24.43 52.29s-36.84-20.58-48.61-46.29c-11.76-25.7-18.81-88.08-18.81-88.08Z" transform="translate(285 257)"></path><path fill="url(#n)" d="M141.11 53.5c-18.93 1.94-44.64 12.01-44.64 12.01s7.05 62.38 18.82 88.09 48.61 46.29 48.61 46.29.08-.08.23-.24L141.11 53.5Z" opacity=".5" transform="translate(285 257)"></path><path fill="url(#o)" d="M83.13 198.1s-.99 1.57-1.65 4.69c-.66 3.13-.49 5.44-.49 5.44s6.75 3.79 12.85 4.12c6.09.33 6.59-.82 6.59-.82s2.47-4.28 2.8-6.59c.33-2.31-.08-5.35-.08-5.35s-2.88-3.21-8.89-3.71c-6.02-.49-9.32.33-11.13 2.22Z" transform="translate(285 257)"></path><path fill="url(#p)" d="M80.99 208.23c-.51-.29-3.17 7.16-3.29 21.74-.12 14.58.37 30.02-.37 33.72-.74 3.71-1.98 8.77-1.98 8.77s3.58 2.72 7.41 2.47 6.67-1.98 6.67-1.98.74-9.27 2.22-14.21c1.48-4.94 7.66-21.49 8.77-26.19 1.11-4.69 1.98-11.37 1.48-14.08-.49-2.72-1.48-6.96-1.48-6.96s-8.77 2.78-19.43-3.28Z" transform="translate(285 257)"></path><path fill="#FFF" d="m376.15 453.72-2.46 14.05-7.73 63.59-4.92-.7 2.81-11.24s-.7-43.22.7-48.13c1.4-4.91 1.41-4.92 1.41-4.92s0-9.49 3.51-11.59c3.52-2.11 6.68-1.06 6.68-1.06Z" opacity=".4"></path><path fill="#000" d="M360.35 529.47s-4.24 5.68-6.38 7.33c-2.14 1.65-8.81 5.68-9.64 7.41-.82 1.73-.74 5.27.25 6.26.99.99 6.18 2.14 11.53.82 5.35-1.32 7.82-4.61 9.97-6.01 2.14-1.4 6.42-4.69 6.67-5.11.25-.42.66-3.62.74-5.35.08-1.73-.66-4.2-.66-4.2s-7.83 2.56-12.48-1.15Z"></path><path fill="url(#q)" d="m42.94 83.38-20.42-2.25s1.97 4.33 1.18 7.06c-.78 2.73-2.03 4.93-2.03 4.93l29.84 12.39s3.9-8.35 2.86-11.38c-2.21-6.47-11.43-10.75-11.43-10.75Z" transform="translate(285 257)"></path><path fill="url(#r)" d="M82.63 45.82s-12.26.12-18.78 4.12c-9.39 5.77-8.89 16.47-8.89 16.47s7.91-6.75 12.19-7.91c4.28-1.15 5.77-.99 5.77-.99s-4.45 6.59-2.8 12.19c1.65 5.6 7.41 7.41 7.41 7.41s4.45-14.49 5.93-18.94c1.48-4.45 1.48-4.61 1.48-4.61l-2.31-7.74Z" transform="translate(285 257)"></path><path fill="url(#s)" d="M82.63 45.82s2.72-8.32-.99-21.41c-2.43-8.59 1.48-21 7.41-22.98C94.98-.55 99.92.44 105.6 4.64c5.68 4.2 8.65 20.75 10.38 23.72 1.73 2.97 9.88 6.18 9.88 6.18s-.25 14.91-20.51 20.51c-17.64 4.88-26.19-8.24-26.19-8.24l3.47-.99Z" transform="translate(285 257)"></path><path fill="url(#t)" d="m80.16 24.66 16.31-.25 15.81-11.61 4.45 14.58-13.09 23.47-21.75-16.06z" transform="translate(285 257)"></path><path fill="#000" d="m368.38 284.13 13.58.25 12.85-10.13.25 4.44-11.86 9.64-14.08-1.48zM299.91 333.91l-1.34 23.97-.91 1.24-3.54-1.89 1.18-24.2z"></path><path fill="#000" d="M298.57 357.88s1.64 2.5.94 5.34c-.69 2.84-2.5 4.68-4.98 4.08-2.48-.6-2.76-3.76-2.25-6.07.51-2.32 1.83-4 1.83-4l3.55 1.9.91-1.25ZM304.74 331.63s7.36-5.05 6.06-5.53c-1.3-.49-25.26-.36-25.56 0-.3.36 2.65 4.6 4.27 5.05 1.62.45 15.23.48 15.23.48Z"></path><path fill="#1A0C4D" d="M306.83 350.16s-3.53.93-6 .91c-2.47-.02-3.87-1.06-3.87-1.06l2.28-13.43-.96-.49s-2.26 2.51-4.03 1.95c-1.77-.55-3.62-2.39-2.48-3.71 1.14-1.31 4.3-3.09 5.53-3.69 1.22-.59 1.19-.98 1.55-.9.36.09 7.19 1.54 7.19 3.13 0 1.59.65 3.9 1.25 5.13.59 1.22 1.98 4.99 1.51 6.91-.48 1.93-1.97 5.25-1.97 5.25Z"></path><path fill="#1A0C4D" d="M296.27 331.17s-5.27-1.33-6.63-1.21c-1.36.12-3.06 1.62-2.82 3.01.24 1.39.98 2.27.98 2.27s-2.02.72-2.29 2.12c-.27 1.4 1.58 3.75 1.58 3.75s-1.43.93-1.06 2.54c.37 1.61 2.63 2.79 2.63 2.79s-.28 2.47 1.44 3.27c1.71.79 2.12.95 4.48.63 2.36-.32 4.18-2.05 3.85-3.08-.32-1.03-1.45-1.37-1.45-1.37s1.16-.86.71-2.18c-.45-1.31-1.2-1.88-1.2-1.88s1.06-.7 1.31-2.29c.26-1.59-.62-2.44-.62-2.44s-2.11 1.4-3.59.66c-1.48-.74-3.08-2.26-2.11-3.37.98-1.09 4.79-3.22 4.79-3.22Z"></path><path fill="url(#u)" d="M101.25 68.34s25.01-9.8 42.41-11.11c17.4-1.32 38.02 3.51 38.02 3.51s6.6 60.31 3.44 82.55c-4.24 29.83-22.3 47.75-22.3 47.75s-33.63-18.79-44.38-42.26c-10.76-23.48-17.19-80.44-17.19-80.44Z" transform="translate(285 257)"></path><path fill="url(#v)" d="m141.74 57.59 21.07 133.45s24.61-23.83 23.55-67.75c-1.06-43.92-4.69-62.55-4.69-62.55s-29.74-6.67-39.93-3.15Z" transform="translate(285 257)"></path><path fill="#FFF" d="M389.85 324.42s9.49 73.43 19.32 86.43c9.84 13 38.64 37.18 38.64 37.18s-39.34-23.48-47.07-47.37c-7.73-23.89-14.5-75.32-14.5-75.32l3.61-.92Z"></path><path fill="#000" d="M221.89 464.09s-9.75 14.25-10 14.88c-.25.63-7.79-1.51-10.55-4.02-2.76-2.51-4.14-4.27-4.14-4.27l5.48-11.92 19.21 5.33Z"></path><path fill="url(#w)" d="m47.76 166.61 1.45-9.26c1.98 1.27 8 9.13 21.32 7.15 10.25-1.52 17.48-.53 22.42-2.76l.27-.03s1.63 7.16 1.76 10.17c.13 3.01 1.38 28.01 1.38 28.01s-12.13 8.21-27 6.66c-23.8-2.49-35.86-12.73-35.86-12.73l14.26-27.21Z" transform="translate(163 262)"></path><path fill="url(#x)" d="m53.11 161.94-2.39 8.92-12.06 14.32h-7.03s7.03-16.45 9.54-20.72c2.51-4.27 3.64-5.27 3.64-5.27s3.9 2.62 8.3 2.75Z" transform="translate(163 262)"></path><path fill="#FFF" d="m212.5 432.25-13.12 14.92h2.28l12.06-14.32 2.39-8.92c-.33-.01-.65-.04-.97-.07l-.53.53-2.11 7.86Z"></path><path fill="url(#y)" d="M68.99 164.92c10.15-1.5 18.86-1.31 23.82-3.54l.41-.09s1.13 3.14 1.51 6.53c.38 3.39 1.26 21.73 1.26 21.73l-17.04 5.39-19.51-21.34-1.26-9.04.85-.19c2.62.03 6.33 1.09 9.96.55Z" transform="translate(163 262)"></path><path fill="#FFF" d="m258.99 451.55-.08-1.67-16.39 5.37-19.08-20.2-1.12-7.43-.83-1.14-.3.07 1.26 9.04 19.51 21.34 17.03-5.38Z"></path><path fill="#000" d="M256.73 463.15v17.33s-7.79 3.14-11.81 2.39c-4.02-.75-6.15-2.76-6.15-2.76l-1.76-11.93c0-.01 11.18-.89 19.72-5.03Z"></path><path fill="url(#z)" d="m101.77 232.92-7.41 13.94-6.78-5.27s-10.3-11.55-11.18-14.07c-.88-2.51-.63-9.42-.63-9.42s4.65 2.76 7.16 3.01 8.29-2.14 8.29-2.14.88-4.77 1.38-5.78c.5-1 3.52-3.14 4.65-2.51 1.13.63.13 7.28.13 7.28s1.13 1.26 2.39 2.89c1.26 1.63 1.88 4.77 1.88 4.77l.12 7.3Z" transform="translate(163 262)"></path><path fill="url(#A)" d="m101.68 232.58-7.33 14.27s2.05 3.31 4.56 8.75c2.51 5.44 1.67 10.97 1.67 10.97s7.03.5 9.46 0c2.43-.5 6.61-.67 6.61-.67l1.42-1 .17-6.28s-7.03-5.11-8.62-7.62c-1.59-2.51-2.34-7.87-3.68-13.56-1.34-5.69-4.35-11.3-4.35-11.3l.09 6.44Z" transform="translate(163 262)"></path><path fill="url(#B)" d="m116.17 265.91-.25 7.7s-1.59 7.95-2.93 8.87c-1.34.92-6.45 2.34-8.96 2.26-2.51-.08-3.68-.34-3.68-.34s-2.76-4.27-2.34-5.94c.42-1.67 2.93-6.86 3.35-8.2.42-1.34 1-3.6 1-3.6s6.1.42 13.81-.75Z" transform="translate(163 262)"></path><path fill="#000" d="m275.65 543.65 3.27-8.71.02.02-.02.65s-1.59 7.95-2.93 8.87c-1.34.92-6.45 2.34-8.96 2.26-1.24-.04-2.15-.12-2.76-.2 5.2-.67 11.38-2.89 11.38-2.89Z"></path><path fill="url(#C)" d="m48.89 216.97.8 5.99-2.51 9.8-13.48 4.94s-2.18-6.45-2.18-6.78c0-.34.25-8.88.25-8.88s-1.34-3.43-1.26-5.44c.08-2.01 2.18-7.2 2.18-7.2l1.51-1s2.76 4.1 6.45 6.03c3.68 1.91 8.24 2.54 8.24 2.54Z" transform="translate(163 262)"></path><path fill="url(#D)" d="M30.52 216.59c.08-2.01 2.18-7.2 2.18-7.2l1.51-1s2.76 4.1 6.45 6.03c3.68 1.93 8.25 2.55 8.25 2.55l.8 5.99s-14.05 0-18.01-1.18c-.33-.84-1.25-3.51-1.18-5.19Z" transform="translate(163 262)"></path><path fill="url(#E)" d="M82.93 221.11c2.51.25 8.29-2.14 8.29-2.14s.88-4.77 1.38-5.78c.5-1 3.52-3.14 4.65-2.51 1.13.63.13 7.28.13 7.28s1.13 1.26 2.39 2.89c.94 1.22 1.52 3.27 1.76 4.24l-5.22 7.57-7.85 4.77-5.35-1.02c-2.9-3.42-6.21-7.52-6.7-8.9-.88-2.51-.63-9.42-.63-9.42s4.64 2.77 7.15 3.02Z" transform="translate(163 262)"></path><path fill="#FFF" d="m244.92 482.86 7.21 16.72 5.23 9.28-6.79-5.28-11.17-14.06-.53-8.67z" opacity=".4"></path><path fill="url(#F)" d="M49.69 222.96s1.26 1.26-.33 6.95-5.11 18.34-5.11 18.34.08 4.77.08 5.61c0 .84 2.18 6.78 2.18 7.7 0 .92-.5 2.68-1.42 3.52-.92.84-2.34 2.34-2.34 2.34l-3.77-.75-11.05-7.2-2.18-3.18s4.77-7.37 5.36-9.88c.59-2.51 1.26-12.81 1.26-12.81l1.34 4.1 13.48-4.94 2.5-9.8Z" transform="translate(163 262)"></path><path fill="url(#G)" d="M42.74 267.41s.08 2.76-1.67 3.77c-1.76 1-2.43.92-3.6.92s-7.7.17-7.7.17-13.23 3.85-16.91 3.68c-3.68-.17-6.2-1.34-6.2-1.34s.08-2.18 3.01-4.35c2.93-2.18 13.23-7.37 15.15-8.96 1.93-1.59 2.51-2.76 2.51-2.76l.59.92 11.05 7.2 3.77.75Z" transform="translate(163 262)"></path><path fill="#000" d="M200.97 532.09c2.16-.39 3.45-2.12 3.91-2.85l.86.17s.08 2.76-1.67 3.77c-1.76 1-2.43.92-3.6.92s-7.7.17-7.7.17-13.23 3.85-16.91 3.68c-.67-.03-1.31-.09-1.89-.18 3.34-.71 24.45-5.21 27-5.68Z"></path><path fill="url(#H)" d="m60.54 104.1-16.56 5.2s-2.12 6.68-4.34 10.63c-2.22 3.94-2.78 5.7-2.78 5.7l17.92-4s1.03-9.35 2.79-13.06c1.76-3.69 2.97-4.47 2.97-4.47Z" transform="translate(163 262)"></path><path fill="url(#I)" d="M57.19 110.4s-3.33.11-6.15-1.37l-2.82-1.48s4.19-5.26 9.08-6.03c4.89-.77 11.03-.19 11.03-.19l-1.8 1.16-6.76 1.9c0 .01-2.32 3.96-2.58 6.01Z" transform="translate(163 262)"></path><path fill="url(#J)" d="M97.49 128.83s-5.6 12.52-6.48 14.75c-.89 2.23-1.41 4.56-1.41 4.56s-10 1.24-21.27-.88c-11.28-2.12-14.82-3.89-14.82-3.89s-.75-5.67-.21-11.8c2.17-24.64 7.13-27.74 7.13-27.74l4.95-1.15 23.41 5.59 8.7 20.56Z" transform="translate(163 262)"></path><path fill="#FFF" d="m227.51 369.55 1.54-5.33-5.64 1.6s-4.95 3.1-7.13 27.74c-.54 6.13.21 11.8.21 11.8s1.49.74 5.59 1.84c1.52-11.91 5.43-37.65 5.43-37.65Z" opacity=".5"></path><path fill="#000" d="m252.52 412.72.07-2.59s-11.19 1.3-23.24-1.3c-12.05-2.6-12.85-3.47-12.85-3.47l-1.07 2.44c-.01 0 16.43 6.04 37.09 4.92Z"></path><path fill="url(#K)" d="M88.8 98.57s2.32-5.18 2.98-6.29c.66-1.12 5.43-10.39 3.88-15.7-1.56-5.31-7.87-8.21-12.86-7.78-4.99.43-6.28 2.24-6.28 2.24l-.62-2.43s-3.77 2.59-5.99 6.49c-2.22 3.9-3.03 6.46-3.03 6.46l-4.42-.37s3.22 13.34 4.36 14.53c1.14 1.19 2.84 2.27 2.84 2.27l-2.54 3.46c0-.01 13.87.14 21.68-2.88Z" transform="translate(163 262)"></path><path fill="#000" d="M251.8 360.57c-7.81 3.03-21.68 2.88-21.68 2.88l2.54-3.46s14.37-1 20.34-2.05c-.65 1.39-1.2 2.63-1.2 2.63Z"></path><path fill="url(#L)" d="M89.35 76.92c.8-.75 4.98.75 2.92 4.01-1.64 2.6-9.07 8.87-9.07 8.87l-13.53 8.18s-1.7-1.08-2.84-2.27-4.36-14.53-4.36-14.53l4.42.37 15.39 1.34c-.02 0 6.68-5.61 7.07-5.97Z" transform="translate(163 262)"></path><path fill="#1A0C4D" d="M254.54 342.01c.22-.8-.24-1.63-1.04-1.86-.8-.22-1.63.24-1.86 1.04-.22.8.24 1.63 1.04 1.86.81.23 1.64-.24 1.86-1.04Z"></path><path fill="#000" d="m241.81 344.38.09-1.02-11.58-.77-.45.96z"></path><path fill="url(#M)" d="m88.97 98.72 5.3 5.27s-11.15 5.35-18.31 5.3c-7.16-.05-12.09-1.76-12.09-1.76l1.49-4.86 1.76-1.23s10.04-.44 13.31-.88c2.15-.29 8.37-2 8.37-2l.17.16Z" transform="translate(163 262)"></path><path fill="url(#N)" d="M94.27 103.99s11.42 2.04 13.64 5.78c2.92 4.93 1.29 8.64 1.29 8.64s-.4-.89-2.21-1.2c-1.8-.31-2.86-.28-2.86-.28s-4.21.84-5.03 4.46c-.82 3.62-.17 7.58-.17 7.58s-7.3-1.03-11.71-3.33c-4.84-2.52-7.56-11.46-5.47-14.47 2.08-3 2.72-3.41 2.72-3.41s7.61-2.23 9.8-3.77Z" transform="translate(163 262)"></path><path fill="url(#O)" d="m108.65 118.07.82 2.64s-8.62 2.6-8.77 2.43c-.15-.17-1.08-3.11-1.08-3.11l8.04-2.64.99.68Z" transform="translate(163 262)"></path><path fill="url(#P)" d="M107.23 117.34c-.22-.13-2.1-.65-4.23-.01-2.14.64-3.18 2.5-3.18 2.5l7.41-2.49Z" transform="translate(163 262)"></path><path fill="url(#Q)" d="m109.06 120.79 2.09 4.89-7.81 2.05-2.1-4.63z" transform="translate(163 262)"></path><path fill="url(#R)" d="m110.74 125.76 1.99 4.73-6.88 2.25-2.13-4.97z" transform="translate(163 262)"></path><path fill="url(#S)" d="M113.03 132.47s-.42.34-1.3 1.4c-.88 1.06-.97 3.45-.9 3.66.07.22-3.22-.84-3.22-.84s-1.21-2.43-1.24-3.02c-.03-.6 5.98-2.95 5.98-2.95l.68 1.75Z" transform="translate(163 262)"></path><path fill="url(#T)" d="M118.37 144.6s-5.08-4.23-6.33-5.56c-1.26-1.33-1.21-1.51-1.21-1.51s-.11-2.18.9-3.66c1-1.48 2.21-1.6 2.21-1.6s3.27 1.57 4.43 12.33Z" transform="translate(163 262)"></path><path fill="url(#U)" d="M107.61 136.69s-2.54-.71-4.94-.99c-2.4-.28-3.11.17-3.06-.01.05-.18-2.81-5.09-2.81-5.09l.69-1.76 1.46.15s-.57-3.09-.2-5.34c.37-2.24.88-3.6.88-3.6s6.49 6.39 6.42 6.63c-.07.24 3.42 6.18 3.35 6.42-.07.24.07 3.93-.23 3.85-.3-.1-1.56-.26-1.56-.26Z" transform="translate(163 262)"></path><path fill="url(#V)" d="M118.37 144.6s.18 2.4-.43 3.4-3.88 5.24-3.88 5.24-3.61.1-5.22-.22c-1.61-.32-2.78-.78-2.78-.78s7.86-3.6 8.39-4.82c.54-1.22 1.01-3.37 1.01-3.37l-2.76-4.36 5.67 4.91Z" transform="translate(163 262)"></path><path fill="url(#W)" d="M106.41 152.13c-.18-.05-3.24.4-4.39.07-1.15-.32-3.62-1.99-3.62-1.99s3.7-2.03 4-2.86c.3-.83 1.54-4.33 1.2-5.21-.34-.88-3.99-6.47-3.99-6.47s3.61-.09 6.03.58c2.42.68 5.19 1.26 5.19 1.26l4.63 6.52-1.01 3.37-8.04 4.73Z" transform="translate(163 262)"></path><path fill="#1A0C4D" d="m262.89 410.97-4.46.49s-4.45-3.29-4.71-3.6c-.26-.31-.24-1.01 0-1.22.24-.21.56-.21.56-.21s-1.08-.99-.63-1.6c.45-.61.72-.69.72-.69s-1.63-.78-1.17-1.78l.46-.99s-.77-.61-.84-1.2l-.07-.59 3.64-1.17 3.82-1.71s2.65-.42 2.89-.05c.24.37 4.43 6.17 4.43 6.17l-.94 5.51c-.01 0-3 2.33-3.7 2.64Z"></path><path fill="#000" d="m261.64 411.14 1.15 4.76-.35 1-2.71-.56-1.3-4.88z"></path><path fill="#000" d="M262.79 415.9s1.56 1.33 1.66 3.34c.1 2.01-.74 3.57-2.48 3.65-1.75.09-2.55-1.94-2.66-3.56-.11-1.63.42-2.99.42-2.99l2.71.56.35-1ZM261.2 396.45s1.74-2.85.79-2.91c-.95-.07-11.55 3.78-11.67 4.07-.13.29 1.55 1.79 2.71 1.78 1.16-.03 8.17-2.94 8.17-2.94Z"></path><path fill="url(#X)" d="M95.37 132.65S63.74 4.89 63.07 3.47C62.4 2.05 61.35.3 61.35.3s-.54 2-.16 4.52c.38 2.51 30.17 129.25 30.17 129.25l4.01-1.42Z" transform="translate(163 262)"></path><path fill="#FFF" d="m256.52 395.38-32.17-133.09 1.8 2.52 32.22 129.84"></path><path fill="url(#Y)" d="M51.74 83.44s-13.53-5.75-18.72-7.79c-5.19-2.04-9.69-2.72-9.69-2.72S1.08 150.19.7 152.23c-.38 2.04.34 4 1.54 4.24 1.2.24 14.41-.55 26.27-13.24 6.06-6.48 12.62-23.41 17.68-38.69 5.09-15.27 5.55-21.1 5.55-21.1Z" transform="translate(163 262)"></path><path fill="#FFF" d="M185.01 339.05s4.63.63 11.57 3.37 11.57 5.26 11.57 5.26-5.26 22.3-9.47 33.03c-4.21 10.73-11.78 23.77-11.78 23.77s11.15-13.68 17.04-33.66c5.89-19.98 6.51-23.35 6.51-23.35s-11.31-7.36-25.01-9.46" opacity=".7"></path><path fill="url(#Z)" d="M1.36 149.81c.06.53.16 1.03.32 1.43.68 1.75 8.11 1.39 17.36-4.8 9.26-6.19 14.23-18.37 17.78-26.85 3.55-8.48 10.64-34.13 10.64-34.13s-6.51-3.58-12.57-5.67c-3.96-1.37-9.25-2.9-12.44-3.79l.88-3.06s4.5.68 9.69 2.72c5.19 2.04 18.72 7.79 18.72 7.79s-.46 5.83-5.53 21.11-11.63 32.21-17.68 38.69c-11.86 12.69-25.07 13.48-26.27 13.24-1.2-.24-1.92-2.2-1.54-4.24.03-.2.25-1.06.64-2.44Z" transform="translate(163 262)"></path><path fill="url(#aa)" d="M89.52 150.72s2.28 4.42 3.21 8.07c.93 3.65 1.6 6.84 1.6 6.84s-12.99 3.53-29.99 1.37c-17-2.16-20.57-8.51-20.57-8.51l2.75-4.71 6.74-7.76c.01.02 14.68 5.83 36.26 4.7Z" transform="translate(163 262)"></path><path fill="url(#ab)" d="M44.21 157.76c6.39 6.3 17.72 8.77 31.11 8.63 12.63-.13 17.79-1.88 18.7-2.23.2.91.32 1.47.32 1.47s-12.99 3.53-29.99 1.37c-17-2.16-20.57-8.51-20.57-8.51l.43-.73Z" transform="translate(163 262)"></path><path fill="url(#ac)" d="M27.55 117.93s2.01 13.56 2.26 15.95c.25 2.39.13 4.77.13 4.77s9.29 3.89 20.72 4.9c11.43 1 15.32.25 15.32.25s2.14-5.28 3.39-11.3c1.26-6.03.63-28.63.63-28.63l-4.46-2.45-24.05-.94-13.94 17.45Z" transform="translate(483 255)"></path><path fill="url(#ad)" d="m70.88 161.64-.4-.04c-1.98 1.27-8.01 4.03-21.33 2.05-10.25-1.52-18.53-4.64-23.47-6.88l-.27-.03s-1.63 7.16-1.76 10.17c-.13 3.01-1.38 28.01-1.38 28.01s12.06 6.28 27 6.66c14.95.38 34.03-2.01 34.03-2.01l-12.42-37.93Z" transform="translate(483 255)"></path><path fill="url(#ae)" d="m62.31 163.84 2.39 8.92 12.06 14.32h7.03s-7.03-16.45-9.54-20.72c-2.51-4.27-3.64-5.27-3.64-5.27s-3.91 2.63-8.3 2.75Z" transform="translate(483 255)"></path><path fill="#FFF" d="m548.68 427.44-2.04-8.71c-.44.06-.88.11-1.34.12l2.39 8.92 12.06 14.32h7.03s-.1-.23-.27-.63l-6.46-.68-11.37-13.34Z"></path><path fill="url(#af)" d="M49.15 163.23c-10.15-1.5-18.37-4.58-23.32-6.81l-.41-.09s-1.13 3.14-1.51 6.53c-.38 3.39-1.26 21.73-1.26 21.73l11.81 6.15 23.61-17.58 1.26-9.04-.85-.19c-2.62.02-5.7-.17-9.33-.7Z" transform="translate(483 255)"></path><path fill="#FFF" d="m517.69 443.99-11.94-6.45c-.06 1.26-.1 2.04-.1 2.04l11.81 6.15 23.61-17.58 1.26-9.04-.85-.19-1.63 8.24"></path><path fill="#000" d="M507.91 451.18v17.33s7.79 3.14 11.81 2.39c4.02-.75 6.15-2.76 6.15-2.76l1.76-11.93c0-.01-11.18-.89-19.72-5.03ZM545.34 456.32s7.16 10.05 7.41 10.68c.25.63 7.79-1.51 10.55-4.02 2.76-2.51 4.14-4.27 4.14-4.27l-2.26-4.4-19.84 2.01Z"></path><path fill="url(#ag)" d="m16.87 227.95 7.41 13.94 6.78-5.27s10.3-11.55 11.18-14.07c.88-2.51.63-9.42.63-9.42s-4.65 2.76-7.16 3.01-8.29-2.14-8.29-2.14-.88-4.77-1.38-5.78c-.5-1-3.52-3.14-4.65-2.51-1.13.63-.13 7.28-.13 7.28s-1.13 1.26-2.39 2.89c-1.26 1.63-1.88 4.77-1.88 4.77l-.12 7.3Z" transform="translate(483 255)"></path><path fill="url(#ah)" d="m16.96 227.61 7.33 14.27s-2.05 3.31-4.56 8.75c-2.51 5.44-1.67 10.97-1.67 10.97s-7.03.5-9.46 0c-2.43-.5-6.61-.67-6.61-.67l-1.42-1-.17-6.28s7.03-5.11 8.62-7.62c1.59-2.51 2.34-7.87 3.68-13.56 1.34-5.69 4.35-11.3 4.35-11.3l-.09 6.44Z" transform="translate(483 255)"></path><path fill="url(#ai)" d="m2.47 260.94.25 7.7s1.59 7.95 2.93 8.87c1.34.92 6.45 2.34 8.96 2.26 2.51-.08 3.68-.34 3.68-.34s2.76-4.27 2.34-5.94c-.42-1.67-2.93-6.86-3.35-8.2-.42-1.34-1-3.6-1-3.6s-6.1.42-13.81-.75Z" transform="translate(483 255)"></path><path fill="#000" d="m488.99 531.68-3.27-8.71-.02.02.02.65s1.59 7.95 2.93 8.87c1.34.92 6.45 2.34 8.96 2.26 1.24-.04 2.15-.12 2.76-.2-5.2-.67-11.38-2.89-11.38-2.89Z"></path><path fill="url(#aj)" d="m69.75 212-.8 5.99 2.51 9.8 13.48 4.94s2.18-6.45 2.18-6.78c0-.34-.25-8.88-.25-8.88s1.34-3.43 1.26-5.44c-.08-2.01-2.18-7.2-2.18-7.2l-1.51-1s-2.76 4.1-6.45 6.03c-3.68 1.91-8.24 2.54-8.24 2.54Z" transform="translate(483 255)"></path><path fill="url(#ak)" d="M88.12 211.62c-.08-2.01-2.18-7.2-2.18-7.2l-1.51-1s-2.76 4.1-6.45 6.03c-3.68 1.93-8.25 2.55-8.25 2.55l-.8 5.99s14.05 0 18.01-1.18c.33-.84 1.25-3.51 1.18-5.19Z" transform="translate(483 255)"></path><path fill="url(#al)" d="M35.71 216.14c-2.51.25-8.29-2.14-8.29-2.14s-.88-4.77-1.38-5.78c-.5-1-3.52-3.14-4.65-2.51-1.13.63-.13 7.28-.13 7.28s-1.13 1.26-2.39 2.89c-.94 1.22-1.52 3.27-1.76 4.24l5.22 7.57 7.85 4.77 5.35-1.02c2.9-3.42 6.21-7.52 6.7-8.9.88-2.51.63-9.42.63-9.42s-4.64 2.77-7.15 3.02Z" transform="translate(483 255)"></path><path fill="url(#am)" d="M68.95 217.99s-1.26 1.26.33 6.95 5.11 18.34 5.11 18.34-.08 4.77-.08 5.61c0 .84-2.18 6.78-2.18 7.7 0 .92.5 2.68 1.42 3.52.92.84 2.34 2.34 2.34 2.34l3.77-.75 11.05-7.2 2.18-3.18s-4.77-7.37-5.36-9.88c-.59-2.51-1.26-12.81-1.26-12.81l-1.34 4.1-13.48-4.94-2.5-9.8Z" transform="translate(483 255)"></path><path fill="url(#an)" d="M75.9 262.44s-.08 2.76 1.67 3.77c1.76 1 2.43.92 3.6.92s7.7.17 7.7.17 13.23 3.85 16.91 3.68c3.68-.17 6.2-1.34 6.2-1.34s-.08-2.18-3.01-4.35c-2.93-2.18-13.23-7.37-15.15-8.96-1.93-1.59-2.51-2.76-2.51-2.76l-.59.92-11.05 7.2-3.77.75Z" transform="translate(483 255)"></path><path fill="#000" d="M563.67 520.12c-2.16-.39-3.45-2.12-3.91-2.85l-.86.17s-.08 2.76 1.67 3.77c1.76 1 2.43.92 3.6.92s7.7.17 7.7.17 13.23 3.85 16.91 3.68c.67-.03 1.31-.09 1.89-.18-3.34-.71-24.46-5.21-27-5.68ZM512.31 396.17l.63-2.51s10.42 4.27 22.73 5.02 13.31.13 13.31.13l.38 2.64c-.01-.01-17.46 1.37-37.05-5.28Z"></path><path fill="url(#ao)" d="M44.08 91.14s-.84-5.61-1.17-6.87c-.33-1.26-2.43-11.47.5-16.16 2.93-4.69 9.8-5.78 14.48-4.02 4.69 1.76 5.44 3.85 5.44 3.85l1.26-2.18s2.93 3.52 4.02 7.87c1.09 4.35 1.17 7.03 1.17 7.03l4.35.84s-6.7 11.97-8.12 12.81c-1.42.84-3.35 1.42-3.35 1.42l1.51 4.02c.01.02-13.39-3.58-20.09-8.61Z" transform="translate(483 255)"></path><path fill="#000" d="M527.08 346.14c6.7 5.02 20.09 8.62 20.09 8.62l-1.51-4.02s-13.56-4.84-19.03-7.47c.25 1.53.45 2.87.45 2.87Z"></path><path fill="url(#ap)" d="M49.4 70.15c-.57-.94-5-.63-3.89 3.08.88 2.95 6.34 10.99 6.34 10.99l10.82 11.53s1.93-.59 3.35-1.42c1.42-.84 8.12-12.81 8.12-12.81l-4.35-.84-15.18-2.87s-4.93-7.2-5.21-7.66Z" transform="translate(483 255)"></path><path fill="#1A0C4D" d="M529.45 327.53c0-.83.67-1.51 1.51-1.51.83 0 1.51.67 1.51 1.51 0 .83-.67 1.51-1.51 1.51s-1.51-.67-1.51-1.51Z"></path><path fill="#000" d="m541.07 333.25.18-1.01 11.37 2.39.17 1.05z"></path><path fill="url(#aq)" d="m43.87 91.25-6.53 3.64s9.29 8.16 16.2 10.05c6.91 1.88 12.12 1.57 12.12 1.57l-.13-5.09-1.36-1.65s-9.55-3.14-12.58-4.44c-1.99-.85-7.51-4.19-7.51-4.19l-.21.11Z" transform="translate(483 255)"></path><path fill="url(#ar)" d="M37.34 94.89s-11.54-1.12-14.69 1.88c-4.14 3.96-3.58 7.97-3.58 7.97s.63-.75 2.45-.56c1.82.19 2.83.5 2.83.5s3.83 1.95 3.64 5.65c-.19 3.7-1.88 7.35-1.88 7.35s3.41.43 8.37.05c4.96-.38 14.17-9.09 12.98-12.54-1.19-3.45-1.7-4.02-1.7-4.02s-6.72-4.21-8.42-6.28Z" transform="translate(483 255)"></path><path fill="url(#as)" d="m19.7 104.56-1.51 2.32s7.6 4.83 7.79 4.71c.19-.13 1.88-2.7 1.88-2.7l-7.03-4.71-1.13.38Z" transform="translate(483 255)"></path><path fill="url(#at)" d="M21.27 104.25c.25-.06 2.2-.06 4.08 1.13s2.39 3.27 2.39 3.27l-6.47-4.4Z" transform="translate(483 255)"></path><path fill="url(#au)" d="m18.57 107.07-3.33 4.15 6.97 4.08 3.27-3.9z" transform="translate(483 255)"></path><path fill="url(#av)" d="m15.62 111.4-3.21 4.02 6.03 4.02 3.39-4.21z" transform="translate(483 255)"></path><path fill="url(#aw)" d="M11.6 117.24s.31.44.88 1.7c.57 1.26 0 3.58-.13 3.77-.13.19 3.33.06 3.33.06s1.82-2.01 2.01-2.57c.19-.57-4.96-4.46-4.96-4.46l-1.13 1.5Z" transform="translate(483 255)"></path><path fill="url(#ax)" d="M3.18 127.48s6.03-2.7 7.6-3.64c1.57-.94 1.57-1.13 1.57-1.13s.69-2.07.13-3.77c-.56-1.7-1.7-2.14-1.7-2.14s-3.58.63-7.6 10.68Z" transform="translate(483 255)"></path><path fill="url(#ay)" d="M15.68 122.77s2.64 0 5.02.38c2.39.38 2.95 1 2.95.82 0-.19 4.08-4.14 4.08-4.14l-.19-1.88-1.44-.25s1.38-2.83 1.63-5.09.13-3.7.13-3.7-7.97 4.4-7.97 4.65-4.96 5.02-4.96 5.27-1.13 3.77-.82 3.77c.31-.02 1.57.17 1.57.17Z" transform="translate(483 255)"></path><path fill="url(#az)" d="M3.18 127.48s-.82 2.26-.5 3.39C2.99 132 5 136.96 5 136.96s3.45 1.07 5.09 1.19c1.63.13 2.89 0 2.89 0s-6.59-5.59-6.78-6.91c-.19-1.32-.06-3.52-.06-3.52l3.83-3.45-6.79 3.21Z" transform="translate(483 255)"></path><path fill="url(#aA)" d="M12.67 137.97c.19 0 3.01 1.26 4.21 1.26 1.19 0 4.02-.94 4.02-.94s-3.01-2.95-3.08-3.83c-.06-.88-.31-4.58.25-5.34.57-.75 5.59-5.15 5.59-5.15s-3.45-1.07-5.97-1.07c-2.52 0-5.34-.19-5.34-.19l-6.22 5.02.06 3.52 6.48 6.72Z" transform="translate(483 255)"></path><path fill="#1A0C4D" d="m503.95 393.03 4.27 1.38s5.02-2.32 5.34-2.57c.31-.25.44-.94.25-1.19s-.5-.31-.5-.31 1.26-.75.94-1.44c-.31-.69-.57-.82-.57-.82s1.76-.44 1.51-1.51l-.25-1.07s.88-.44 1.07-1l.19-.57-3.33-1.88-3.39-2.45s-2.51-.94-2.83-.63c-.31.31-5.59 5.15-5.59 5.15l-.19 5.59c.01-.01 2.46 2.88 3.08 3.32Z"></path><path fill="#000" d="m505.15 393.45-2.1 4.43.15 1.05h2.76l2.27-4.52z"></path><path fill="#000" d="M503.05 397.88s-1.8.98-2.3 2.93c-.5 1.95 0 3.64 1.7 4.08 1.7.44 2.89-1.38 3.33-2.95.44-1.57.19-3.01.19-3.01h-2.76l-.16-1.05ZM508.54 379.15s-1.13-3.14-.19-3.01c.94.13 10.55 6.03 10.61 6.34.06.31-1.88 1.44-3.01 1.19s-7.41-4.52-7.41-4.52Z"></path><path fill="url(#aB)" d="M28.68 122.96S85.45 4.22 86.39 2.96C87.33 1.7 88.71.2 88.71.2s.13 2.07-.75 4.46-55.64 120.5-55.64 120.5l-3.64-2.2Z" transform="translate(483 255)"></path><path fill="#FFF" d="m513.34 379.04 58.37-123.84-2.27 2.1-57.76 120.66"></path><path fill="url(#aC)" d="M66.26 90.1s14.57-1.88 20.12-2.44c5.55-.56 10.06 0 10.06 0s.56 80.4.38 82.46c-.19 2.07-1.41 3.76-2.63 3.67-1.22-.09-13.73-4.42-21.72-19.84-4.08-7.88-5.83-25.95-6.58-42.03-.76-16.09.37-21.82.37-21.82Z" transform="translate(483 255)"></path><path fill="#FFF" d="M579.12 346.92s-10.1-.28-15.43.56c-5.33.84-9.12 1.68-9.12 1.68s-1.55 11.24.7 33.94c1.96 19.78 6.17 28.33 6.17 28.33s-5.05-4.63-7.43-26.65c-2.96-27.34-1.18-36.59-1.18-36.59s14.77-3.3 26.63-2.36" opacity=".7"></path><path fill="url(#aD)" d="M96.85 167.6c-.2.49-.43.95-.69 1.29-1.13 1.5-8.18-.85-15.42-9.31s-8.74-21.53-9.87-30.65c-1.13-9.12-1.03-35.73-1.03-35.73s7.24-1.69 13.63-2.07c4.18-.25 9.69-.29 13-.29-.01-2.03-.02-3.19-.02-3.19s-4.51-.56-10.06 0c-5.55.56-20.12 2.44-20.12 2.44s-1.13 5.74-.38 21.82c.75 16.08 2.5 34.15 6.58 42.03 7.99 15.42 20.5 19.75 21.72 19.84 1.22.09 2.44-1.6 2.63-3.67.01-.19.03-1.07.03-2.51Z" transform="translate(483 255)"></path><path fill="url(#aE)" d="M29.31 141.17s-3.39 3.64-5.27 6.91c-1.88 3.27-3.39 6.15-3.39 6.15s11.55 6.91 28.51 9.42c16.95 2.51 22.1-2.64 22.1-2.64l-1.38-5.27-4.4-9.29c0-.01-15.7 1.63-36.17-5.28Z" transform="translate(483 255)"></path><path fill="url(#aF)" d="M71.04 160.18c-7.86 4.34-19.43 3.66-32.28-.09-12.12-3.54-16.63-6.61-17.4-7.19-.44.82-.71 1.33-.71 1.33s11.55 6.91 28.51 9.42c16.95 2.51 22.1-2.64 22.1-2.64l-.22-.83Z" transform="translate(483 255)"></path><path fill="#FFF" d="m519.72 470.89-5.19 15.87-7.57 9.26-5.68 13.47 6.01-12.6 6.78-5.27s4.08-4.79 4.48-5.17c.4-.38 6.99-9.92 6.99-9.92l.33-8.4-6.15 2.76Z" opacity=".4"></path><path fill="url(#aG)" d="M476.26 122.56c3.83 0 7.41 1.05 10.48 2.88.73-10.68 9.62-19.11 20.48-19.11 2.65 0 5.18.51 7.5 1.42 2.96-9.9 12.13-17.12 22.99-17.12 13.26 0 24 10.75 24 24 0 .34-.01.68-.03 1.01h.03c13.25 0 24 10.75 24 24 0 13.26-10.75 24-24 24-.83 0-1.65-.04-2.45-.12H478.5c-.74.08-1.48.12-2.24.12-11.34 0-20.54-9.2-20.54-20.54s9.19-20.54 20.54-20.54Z" opacity=".6"></path><path fill="url(#aH)" d="M23.68 76.76s-2.68 4.09-3.79 3.19c-1.11-.9-5.24-3.82-8.12-5.03-2.88-1.22-5.57-3.2-8.15-2.88-2.58.31-3.18 1.89-3.18 1.89s1.77.13 3.16 1.02c1.39.9 1.83 1.51 1.83 1.51s-1.1.25-2.04 1.12c-.95.87-1.23 1.64-1.23 1.64s1.57-.06 3.21.88c1.63.94 4.26 1.25 5.75 1.95 1.49.7 2.65 2.03 6.05 3.86 3.41 1.83 3.84 2.35 4.7 2.05.86-.29 2.13-1.88 3.41-3.56 1.27-1.68 2.17-2.5 2.17-2.5" transform="translate(615 337)"></path><path fill="url(#aI)" d="M39.3 46.32s-7.54-14.94-9.69-17.64c-2.15-2.69-3.88-2.78-6.93-.98-3.06 1.79-8.19 4.11-8.19 4.11s-4.25-1.38-6.8.1-3.64 3.12-3.64 3.12l2.64-.46s-1.15 2.07-1.56 3.14c-.41 1.06-.38 1.91-.38 1.91s2-2.1 2.98-2.74c.98-.64 1.39-1.34 1.39-1.34s-1.36 3.62-.99 5.59c.37 1.97 1.82 3.04 1.82 3.04s.61-2.79.82-3.8c.21-1.01.84-2.59.84-2.59s.52 4.83 1.55 6.24l1.03 1.41s.21-4.11.5-5.57c.3-1.46.98-3.03.98-3.03s1.14 1.27 1.04 2.13l-.1.86s2.41-1.54 2.39-2.93c-.03-1.38-1.04-2.49-1.04-2.49l7.47-3.12s4.71 10.86 4.51 12.4c-.2 1.55-1.58 7.61-1.58 7.61" transform="translate(615 337)"></path><path fill="url(#aJ)" d="M77.86 14.72c-.95 2.92.65 6.07 3.57 7.02 2.92.95 6.07-.65 7.02-3.57.95-2.92-.65-6.07-3.57-7.02-2.93-.95-6.07.65-7.02 3.57Z" transform="translate(615 337)"></path><path fill="#000" d="M696.36 355.01c-.36 1.09.24 2.27 1.34 2.63 1.09.36 2.27-.24 2.63-1.34.36-1.09-.24-2.27-1.34-2.63-1.09-.35-2.27.25-2.63 1.34Z"></path><path fill="#FFF" d="M698.09 353.86c-.25.76.17 1.57.92 1.81.76.25 1.57-.17 1.81-.92a1.435 1.435 0 1 0-2.73-.89Z"></path><path fill="url(#aK)" d="M79.56 12.05s-2.12-1.33-3.02-3.69C75.64 6 71.38-.25 65.8.72c-5.58.97-8.53 3.2-10.09 10.18-1.56 6.98-.71 7.57-1.78 10.1-1.06 2.52-3.39 4.79-3.39 4.79s.39 1 2.95 3.19c2.55 2.19 3.44 1.68 3.44 1.68s2.95-6.37 3.1-11.74c.16-5.37-.18-11.45 3.88-13.63 4.06-2.19 7.75 1.65 9.4 4.17 1.65 2.53 2.76 4.73 4.54 5.26.01 0 .21-1.25 1.71-2.67Z" transform="translate(615 337)"></path><path fill="url(#aL)" d="M83.55 10.8s-3.24 2.13-4.17 3.98c-.92 1.85-1.22 4.22-1.22 4.22s-1.46-3.34.37-5.78c1.84-2.42 5.02-2.42 5.02-2.42Z" transform="translate(615 337)"></path><path fill="url(#aM)" d="M29.56 8.23a4.551 4.551 0 0 1-4.78 4.31 4.536 4.536 0 0 1-4.3-4.78 4.551 4.551 0 0 1 4.78-4.31c2.5.14 4.43 2.28 4.3 4.78Z" transform="translate(615 337)"></path><path fill="#000" d="M640.92 346.72a1.7 1.7 0 0 1-1.79 1.61 1.7 1.7 0 0 1-1.61-1.79 1.7 1.7 0 0 1 1.79-1.61 1.7 1.7 0 0 1 1.61 1.79Z"></path><path fill="#FFF" d="M639.94 345.33a1.17 1.17 0 0 1-1.24 1.11c-.65-.04-1.15-.59-1.11-1.24.03-.65.59-1.15 1.23-1.11.65.04 1.15.59 1.12 1.24Z"></path><path fill="url(#aN)" d="M29.04 5.7s2-.39 3.39-1.93c1.38-1.54 6.46-5.05 10.42-2.68 3.97 2.38 5.57 4.94 4.71 10.72-.86 5.78-1.68 5.98-1.61 8.22.07 2.23 1.18 4.65 1.18 4.65s-.59.65-3.18 1.57c-2.59.92-3.11.27-3.11.27s-.38-5.72 1.07-9.86c1.45-4.14 3.49-8.68 1.04-11.53-2.45-2.85-6.39-1.02-8.39.43-2 1.44-3.49 2.79-5 2.68 0-.01.21-1.02-.52-2.54Z" transform="translate(615 337)"></path><path fill="url(#aO)" d="M26.36 3.57s1.85 2.58 2.01 4.26c.16 1.68-.31 3.58-.31 3.58s2.09-2.12 1.41-4.51c-.68-2.39-3.11-3.33-3.11-3.33Z" transform="translate(615 337)"></path><path fill="url(#aP)" d="M65.15 61.69c-.09-.31-4.95-19.78-5.61-24.61-.66-4.83-1.83-11.75-9.87-13.25s-10.4 6.73-10.4 6.73-4.01 2.52-2.8 3.95c1.21 1.43 3.46 1.84 3.46 1.84l-.15 5.85s-3.5.22-3.77 1.8c-.28 1.58.45 3.01.45 3.01s-8.4 4.51-13.68 6.78C17.5 56.06 6.23 67.92 17.6 76.8a51.8 51.8 0 0 0 2.2 1.61c11.36 7.77 27.66 11.11 38.32 3.38 8.04-5.83 8.45-14.97 7.03-20.1Z" transform="translate(615 337)"></path><path fill="url(#aQ)" d="M45.42 82.78s-1.56 5.11-.4 5.92c1.15.81 4.13 1.81 7.26 2.88 3.13 1.07 7.09 1.9 8.4 3.23 1.32 1.34 1.63 2.09 1.63 2.09s-1.67-.34-3.42-.31c-1.74.04-3.24.67-3.24.67s.76.29 1.5 2.62l.73 2.33s-3.77-2.65-5.44-2.92c-1.67-.27-5.49-1.7-8.69-2.55-3.2-.84-7.69-1.73-7.21-4.17.48-2.44 1.46-2.76 1.56-5.26.1-2.5-.4-4.69-.4-4.69" transform="translate(615 337)"></path><path fill="url(#aR)" d="M64.87 59.98s2.71-6.3 3.53-7.81c.82-1.51 12.06-8.13 12.06-8.13l4.63 7.63s-1.62.33-2.54 1.54c-.92 1.21.23 4.16.23 4.16l.47-.84c.47-.83 2.31-1.23 2.31-1.23s-.4 1.85-1.09 3.34c-.68 1.49-3.17 5.29-3.17 5.29l1.84-.59c1.84-.59 5.43-4.55 5.43-4.55s-.46 1.83-.93 2.86c-.47 1.03-1.74 3.91-1.74 3.91s1.98-.01 3.59-1.53c1.61-1.52 2.75-5.62 2.75-5.62s-.09.89.37 2.1c.46 1.2.88 4.37.88 4.37s.57-.74.9-1.95c.33-1.21.65-3.81.65-3.81l2.05 2.12s.09-2.17-1.23-5.14c-1.31-2.97-6-4.5-6-4.5s-3.07-5.39-4.63-8.97c-1.56-3.58-3.15-4.63-6.81-3.62-3.66 1-20.08 9.42-20.08 9.42s-4.44 3.77-1.6 9.06c2.85 5.3 8.13 2.49 8.13 2.49Z" transform="translate(615 337)"></path><path fill="url(#aS)" d="m11.83 8.46-.7 2.16-1.78-2.61L8 10.32 6.51 7.56 4.69 9.84 3.63 7.58 2.56 9.39.79 7.41C.82 6.67.84 6 .84 5.48.86 3.22.5 2.5.5 2.5L8.72.39s5.18 5.39 5.6 9.23c.05.43.06.88.04 1.33l-2.53-2.49Z" transform="translate(654 369)"></path><path fill="#FFF" d="m656.04 380 1.14-1.3 1.21 2.15 1.71-2.07 2.03 2.57 1.47-2.07 1.68 3.17 1.54-2.53 1.42 1.33c-.5 3.15-2.4 6.19-5.25 6.38-3.66.24-8.48-5.51-8.48-5.51s.15-2.53.25-4.85l1.28 2.73Z"></path><path fill="#FFF" d="M628.98 403.99s1.25-6.73 7.25-10.53c6-3.8 13.7-5.66 19.92-2.84 6.22 2.82 16.82 16.58 6.31 23.28-7.85 5-20.03 4.28-27.99-1.77-2.69-2.06-4.98-4.21-5.49-8.14Z" opacity=".3"></path><path fill="url(#aT)" d="M50.86 71.34s1.65 3.56.57 3.93c-1.08.37-4.82 1.96-6.87 3.4-2.05 1.45-4.54 2.44-5.42 4.33-.88 1.89-.06 2.97-.06 2.97s.83-1.15 2.03-1.72c1.2-.57 1.8-.61 1.8-.61s-.29.85-.1 1.87c.19 1.01.6 1.53.6 1.53s.62-1.1 1.96-1.82c1.33-.72 2.66-2.38 3.77-3.09 1.11-.72 2.5-.94 5.2-2.49 2.69-1.55 3.23-1.62 3.39-2.33.16-.71-.38-2.25-.99-3.83s-.79-2.54-.79-2.54" transform="translate(178 148)"></path><path fill="url(#aU)" d="M36.73 47.8s-13.38-1.19-16.13-.86c-2.75.33-3.53 1.47-3.61 4.31-.07 2.84-.67 7.32-.67 7.32s-2.74 2.31-2.82 4.68c-.07 2.37.58 3.8.58 3.8l.81-1.99s.93 1.67 1.48 2.39c.55.73 1.14 1.07 1.14 1.07s-.59-2.25-.6-3.19c-.02-.94-.32-1.52-.32-1.52s1.89 2.46 3.4 3.04c1.5.58 2.84.05 2.84.05s-1.64-1.6-2.24-2.17c-.6-.57-1.41-1.67-1.41-1.67s3.51 1.69 4.91 1.58l1.4-.11s-2.72-1.88-3.59-2.7c-.87-.82-1.65-1.95-1.65-1.95s1.35-.24 1.89.19l.55.44s-.03-2.3-.99-2.87c-.95-.57-2.14-.35-2.14-.35l1.03-6.42s9.4 1.39 10.37 2.18c.97.79 4.52 4.3 4.52 4.3" transform="translate(178 148)"></path><path fill="url(#aV)" d="M31.51 8.13a4.47 4.47 0 1 0 6.84-5.76 4.47 4.47 0 1 0-6.84 5.76Z" transform="translate(178 148)"></path><path fill="#000" d="M213.24 155.13c.59.71 1.65.8 2.36.2.71-.59.8-1.65.2-2.36-.59-.71-1.65-.8-2.36-.2-.7.6-.79 1.66-.2 2.36Z"></path><path fill="#FFF" d="M213.19 153.47a1.157 1.157 0 1 0 1.77-1.49 1.157 1.157 0 0 0-1.77 1.49Z"></path><path fill="url(#aW)" d="M30.42 5.83s-1.8.88-3.8.5c-1.99-.39-8.06-.13-9.76 4.08-1.7 4.21-1.43 7.17 2.67 11.19s4.86 3.7 6.13 5.49c1.27 1.79 1.83 4.34 1.83 4.34s.85.16 3.42-.66c2.57-.82 2.6-1.63 2.6-1.63s-3.09-4.71-6.69-7.09c-3.59-2.38-7.88-4.73-7.65-8.42.23-3.69 4.41-4.59 6.82-4.64 2.42-.05 4.39.12 5.51-.87.01.01-.75-.66-1.08-2.29Z" transform="translate(178 148)"></path><path fill="url(#aX)" d="M31.25 2.58s.08 3.11.95 4.53c.87 1.41 2.37 2.62 2.37 2.62s-2.9-.42-3.78-2.7c-.89-2.27.46-4.45.46-4.45Z" transform="translate(178 148)"></path><path fill="url(#aY)" d="M6.63 38.31a3.655 3.655 0 0 1 .91 5.08 3.655 3.655 0 0 1-5.08.91 3.655 3.655 0 0 1-.91-5.08 3.655 3.655 0 0 1 5.08-.91Z" transform="translate(178 148)"></path><path fill="#000" d="M184.11 189.42a1.364 1.364 0 1 1-1.56 2.24c-.62-.43-.77-1.28-.34-1.9.42-.62 1.28-.77 1.9-.34Z"></path><path fill="#FFF" d="M182.75 189.5c.43.3.53.89.24 1.31-.3.43-.89.53-1.31.24a.947.947 0 0 1-.24-1.31c.29-.43.88-.54 1.31-.24Z"></path><path fill="url(#aZ)" d="M4.69 37.59s.58-1.53.12-3.13c-.46-1.59-.71-6.55 2.59-8.24 3.3-1.7 5.72-1.7 9.3 1.33 3.58 3.03 3.37 3.68 4.92 4.58 1.55.9 3.67 1.16 3.67 1.16s.19.68-.28 2.83c-.47 2.15-1.13 2.24-1.13 2.24s-4.06-2.16-6.27-4.91c-2.21-2.74-4.44-6.05-7.42-5.59-2.99.46-3.4 3.93-3.26 5.9.14 1.97.42 3.56-.29 4.55-.01 0-.61-.57-1.95-.72Z" transform="translate(178 148)"></path><path fill="url(#ba)" d="M2.1 38.52s2.54-.17 3.75.43 2.31 1.73 2.31 1.73-.56-2.33-2.48-2.88c-1.91-.55-3.58.72-3.58.72Z" transform="translate(178 148)"></path><path fill="url(#bb)" d="M58.15 36.69c-.25-.07-15.58-5-19.15-6.6-3.57-1.6-8.79-3.73-13.21 1.11-4.43 4.84.18 9.94.18 9.94s.02 3.8 1.51 3.58c1.49-.22 2.72-1.58 2.72-1.58l3.92 2.58s-1.33 2.47-.37 3.33c.96.86 2.25.97 2.25.97s-.48 7.64-1.17 12.2 2.62 17.27 13.49 13.28c.68-.25 1.36-.52 2.03-.82 10.11-4.46 19.29-14.15 18.53-24.69-.57-7.95-6.63-12.1-10.73-13.3Z" transform="translate(178 148)"></path><path fill="url(#bc)" d="M64.18 59.07s2.82 3.23 3.86 2.78c1.04-.44 2.98-2.05 5.04-3.73 2.06-1.68 4.3-4.03 5.76-4.36 1.47-.33 2.12-.23 2.12-.23s-.94 1-1.66 2.2c-.71 1.2-.91 2.5-.91 2.5s.52-.4 2.42.09l1.9.49s-3.4 1.45-4.29 2.47c-.89 1.03-3.49 3.02-5.42 4.85-1.93 1.83-4.44 4.51-5.9 3.15-1.46-1.36-1.26-2.16-2.93-3.29a15.722 15.722 0 0 0-3.37-1.71" transform="translate(178 148)"></path><path fill="url(#bd)" d="M56.87 36.16s-3.14-4.51-3.83-5.71c-.68-1.2-.43-11.67-.43-11.67l7.16.08s-.46 1.24-.03 2.39c.44 1.14 2.93 1.61 2.93 1.61l-.37-.67c-.37-.67.14-2.09.14-2.09s1.09 1.06 1.81 2.15c.73 1.1 2.26 4.4 2.26 4.4l.38-1.5c.38-1.5-.8-5.63-.8-5.63s1.05 1.09 1.56 1.85 1.93 2.84 1.93 2.84.83-1.36.48-3.1-2.67-4.26-2.67-4.26.57.44 1.59.64c1.02.19 3.35 1.25 3.35 1.25s-.26-.7-.95-1.44-2.32-2.05-2.32-2.05l2.31-.5s-1.44-.98-4.02-1.34c-2.58-.36-5.61 2.18-5.61 2.18s-4.98-.19-8.08-.64c-3.1-.46-4.49.19-5.36 3.11-.87 2.92-2.08 17.68-2.08 17.68s.69 4.63 5.5 4.93c4.83.28 5.15-4.51 5.15-4.51Z" transform="translate(178 148)"></path><path fill="url(#be)" d="m9.61 2.45 1.18 1.4-2.53.11 1 1.9-2.51-.15.78 2.2-1.99-.23.78 1.49-2.1.37c-.49-.33-.94-.63-1.29-.85C1.39 7.72.75 7.66.75 7.66l2.04-6.49s5.87-1.25 8.67.09c.31.15.63.33.93.53l-2.78.66Z" transform="translate(206 183)"></path><path fill="#FFF" d="m213.2 193.21-.4-1.33 1.98.08-.69-2.04 2.62-.29-.79-1.88 2.87.2-1.07-2.12 1.51-.4c1.94 1.68 3.21 4.26 2.13 6.28-1.39 2.6-7.35 3.45-7.35 3.45s-1.66-1.17-3.2-2.23l2.39.28Z"></path><path fill="#FFF" d="M218.09 221.81s-4.06-3.71-4.11-9.4c-.05-5.7 1.94-11.73 6.5-14.78 4.56-3.05 18.43-4.44 18.54 5.56.08 7.47-5.57 15.46-13.06 18.33-2.53.97-4.97 1.62-7.87.29Z" opacity=".3"></path><path fill="url(#bf)" d="M42.66 94.06s-2.2 4.74-.76 5.24c1.44.5 6.43 2.61 9.16 4.54 2.73 1.93 6.05 3.26 7.22 5.77 1.17 2.52.08 3.96.08 3.96s-1.11-1.54-2.71-2.3c-1.6-.76-2.41-.81-2.41-.81s.39 1.14.14 2.49c-.25 1.35-.79 2.04-.79 2.04s-.83-1.47-2.61-2.42c-1.78-.95-3.54-3.17-5.02-4.12-1.48-.96-3.34-1.26-6.93-3.32-3.59-2.06-4.31-2.17-4.52-3.11-.22-.95.51-3 1.32-5.11.81-2.11 1.05-3.39 1.05-3.39" transform="translate(27 256)"></path><path fill="url(#bg)" d="M61.49 62.68s17.84-1.58 21.5-1.15c3.66.43 4.71 1.96 4.81 5.74.09 3.79.89 9.76.89 9.76s3.66 3.08 3.75 6.24c.1 3.15-.77 5.07-.77 5.07l-1.08-2.66s-1.23 2.22-1.97 3.19c-.73.97-1.52 1.42-1.52 1.42s.78-3 .8-4.25c.02-1.25.43-2.02.43-2.02s-2.52 3.28-4.53 4.05c-2.01.77-3.79.07-3.79.07s2.19-2.13 2.99-2.89c.8-.76 1.88-2.23 1.88-2.23s-4.68 2.25-6.55 2.11l-1.87-.14s3.62-2.51 4.78-3.6c1.16-1.09 2.19-2.6 2.19-2.6s-1.8-.32-2.52.26l-.73.58s.04-3.06 1.31-3.82c1.27-.76 2.85-.46 2.85-.46l-1.38-8.55s-12.53 1.85-13.82 2.91c-1.29 1.06-6.02 5.73-6.02 5.73" transform="translate(27 256)"></path><path fill="url(#bh)" d="M68.45 9.8c-2.12 2.51-5.88 2.84-8.39.72a5.95 5.95 0 0 1-.72-8.39 5.95 5.95 0 0 1 8.39-.72 5.967 5.967 0 0 1 .72 8.39Z" transform="translate(27 256)"></path><path fill="#000" d="M90.47 264.47c-.79.94-2.2 1.06-3.14.27s-1.06-2.2-.27-3.14 2.2-1.06 3.14-.27c.94.8 1.07 2.2.27 3.14Z"></path><path fill="#FFF" d="M90.54 262.25c-.55.65-1.52.73-2.17.19-.65-.55-.73-1.52-.18-2.17.55-.65 1.52-.73 2.17-.18.65.54.73 1.51.18 2.16Z"></path><path fill="url(#bi)" d="M69.91 6.74s2.4 1.18 5.06.66c2.66-.52 10.74-.17 13 5.44 2.26 5.62 1.91 9.56-3.56 14.91-5.46 5.36-6.48 4.93-8.17 7.31-1.69 2.39-2.44 5.79-2.44 5.79s-1.13.21-4.56-.88c-3.43-1.09-3.46-2.18-3.46-2.18s4.12-6.28 8.91-9.45c4.79-3.17 10.5-6.31 10.2-11.22-.3-4.92-5.87-6.11-9.1-6.18-3.23-.07-5.86.16-7.35-1.15.01.01 1.02-.88 1.47-3.05Z" transform="translate(27 256)"></path><path fill="url(#bj)" d="M68.79 2.41s-.11 4.15-1.27 6.03-3.15 3.49-3.15 3.49 3.86-.56 5.04-3.59c1.18-3.03-.62-5.93-.62-5.93Z" transform="translate(27 256)"></path><path fill="url(#bk)" d="M101.61 50.03a4.853 4.853 0 0 0-1.21 6.77c1.54 2.2 4.57 2.75 6.77 1.21a4.864 4.864 0 0 0 1.22-6.77c-1.55-2.2-4.58-2.74-6.78-1.21Z" transform="translate(27 256)"></path><path fill="#000" d="M129.31 310.17c-.82.57-1.03 1.71-.45 2.53.58.82 1.71 1.03 2.53.45.83-.57 1.03-1.71.46-2.53a1.835 1.835 0 0 0-2.54-.45Z"></path><path fill="#FFF" d="M131.12 310.29c-.57.4-.71 1.18-.31 1.75.4.57 1.18.71 1.75.31.57-.4.71-1.18.31-1.75a1.25 1.25 0 0 0-1.75-.31Z"></path><path fill="url(#bl)" d="M104.2 49.07s-.78-2.04-.16-4.17c.62-2.12.95-8.72-3.45-10.99-4.4-2.26-7.63-2.27-12.4 1.77-4.77 4.04-4.49 4.9-6.56 6.1-2.07 1.2-4.89 1.55-4.89 1.55s-.26.91.37 3.78c.63 2.87 1.51 2.98 1.51 2.98s5.41-2.88 8.35-6.54c2.94-3.66 5.92-8.07 9.9-7.45 3.98.62 4.53 5.23 4.34 7.87-.19 2.63-.57 4.75.39 6.06.01 0 .81-.76 2.6-.96Z" transform="translate(27 256)"></path><path fill="url(#bm)" d="M107.64 50.3s-3.38-.23-5 .58c-1.62.8-3.08 2.3-3.08 2.3s.75-3.1 3.3-3.83c2.57-.73 4.78.95 4.78.95Z" transform="translate(27 256)"></path><path fill="url(#bn)" d="M32.94 47.87c.33-.1 20.77-6.66 25.53-8.8 4.76-2.13 11.71-4.97 17.61 1.48 5.9 6.46-.25 13.25-.25 13.25s-.03 5.07-2.01 4.78c-1.98-.29-3.63-2.11-3.63-2.11l-5.23 3.44s1.78 3.3.5 4.44c-1.28 1.14-3 1.29-3 1.29s.64 10.18 1.56 16.26c.92 6.08-3.49 23.02-17.98 17.7-.9-.33-1.81-.7-2.71-1.09-13.47-5.94-25.71-18.86-24.7-32.91.77-10.59 8.84-16.13 14.31-17.73Z" transform="translate(27 256)"></path><path fill="url(#bo)" d="M24.91 77.7s-3.76 4.3-5.15 3.71c-1.39-.59-3.97-2.73-6.71-4.97-2.74-2.24-5.73-5.37-7.68-5.81-1.96-.44-2.82-.31-2.82-.31s1.26 1.33 2.21 2.93 1.22 3.33 1.22 3.33-.69-.53-3.22.12l-2.53.65s4.53 1.93 5.72 3.3c1.19 1.37 4.65 4.03 7.22 6.46 2.57 2.43 5.92 6.01 7.86 4.2 1.94-1.81 1.68-2.88 3.9-4.39 2.22-1.5 4.49-2.28 4.49-2.28" transform="translate(27 256)"></path><path fill="url(#bp)" d="M34.65 47.16s4.19-6.02 5.1-7.62c.91-1.6.57-15.55.57-15.55l-9.55.1s.62 1.66.03 3.18c-.58 1.52-3.91 2.14-3.91 2.14l.5-.9c.49-.9-.19-2.79-.19-2.79s-1.45 1.41-2.42 2.87c-.97 1.46-3.02 5.87-3.02 5.87l-.5-2c-.5-2 1.07-7.51 1.07-7.51s-1.4 1.45-2.07 2.46c-.68 1.01-2.58 3.79-2.58 3.79s-1.11-1.81-.64-4.13c.47-2.32 3.56-5.68 3.56-5.68s-.76.59-2.11.85c-1.36.26-4.47 1.67-4.47 1.67s.35-.93 1.26-1.91c.92-.98 3.09-2.74 3.09-2.74l-3.08-.67s1.92-1.31 5.36-1.79c3.44-.49 7.48 2.91 7.48 2.91s6.63-.25 10.77-.86c4.13-.61 5.98.25 7.14 4.14 1.16 3.9 2.78 23.57 2.78 23.57s-.92 6.17-7.33 6.57c-6.42.41-6.84-5.97-6.84-5.97Z" transform="translate(27 256)"></path><path fill="url(#bq)" d="M8.31 2.89 6.74 4.75l3.38.14-1.34 2.53 3.35-.2-1.04 2.94 2.65-.31-1.04 1.99 2.8.49c.65-.44 1.26-.84 1.72-1.14 2.05-1.3 2.9-1.37 2.9-1.37L17.4 1.17S9.58-.49 5.85 1.29c-.42.2-.83.44-1.24.71l3.7.89Z" transform="translate(79 302)"></path><path fill="#FFF" d="m90.53 315.23.54-1.77-2.64.11.92-2.72-3.49-.39 1.05-2.51-3.83.27 1.43-2.82-2.02-.54c-2.58 2.23-4.28 5.67-2.83 8.37 1.85 3.46 9.8 4.6 9.8 4.6s2.21-1.56 4.26-2.97l-3.19.37Z"></path><path fill="#FFF" d="M84.01 353.35s5.41-4.94 5.48-12.53c.06-7.6-2.59-15.64-8.67-19.7-6.08-4.06-24.57-5.92-24.71 7.41-.11 9.96 7.42 20.61 17.41 24.43 3.38 1.29 6.63 2.15 10.49.39Z" opacity=".3"></path><path fill="url(#br)" d="M31.47 67.75s-1.58 3.41-.54 3.77c1.04.36 4.63 1.88 6.59 3.26 1.96 1.39 4.35 2.34 5.2 4.15.84 1.81.05 2.85.05 2.85s-.8-1.1-1.95-1.65c-1.15-.55-1.73-.58-1.73-.58s.28.82.1 1.79c-.18.97-.57 1.47-.57 1.47s-.6-1.05-1.88-1.74c-1.28-.69-2.55-2.28-3.61-2.97-1.06-.69-2.4-.91-4.98-2.39-2.58-1.49-3.1-1.56-3.25-2.24-.16-.68.36-2.16.95-3.67.58-1.52.75-2.44.75-2.44" transform="translate(599 146)"></path><path fill="url(#bs)" d="M45.02 45.17s12.84-1.14 15.47-.83c2.63.31 3.39 1.41 3.46 4.13.07 2.73.64 7.02.64 7.02s2.63 2.22 2.7 4.49c.07 2.27-.56 3.65-.56 3.65l-.77-1.91s-.89 1.6-1.42 2.29c-.53.7-1.09 1.02-1.09 1.02s.56-2.16.58-3.06c.02-.9.31-1.45.31-1.45s-1.81 2.36-3.26 2.92c-1.44.56-2.73.05-2.73.05s1.58-1.53 2.15-2.08c.57-.54 1.35-1.6 1.35-1.6s-3.37 1.62-4.71 1.52l-1.34-.1s2.61-1.81 3.44-2.59c.83-.79 1.58-1.87 1.58-1.87s-1.29-.23-1.81.19l-.52.42s.03-2.21.95-2.75c.92-.54 2.05-.33 2.05-.33l-.99-6.15s-9.01 1.33-9.94 2.09c-.93.76-4.33 4.13-4.33 4.13" transform="translate(599 146)"></path><path fill="url(#bt)" d="M50.02 7.13a4.293 4.293 0 0 1-6.04.52 4.293 4.293 0 0 1-.52-6.04 4.293 4.293 0 0 1 6.04-.52 4.273 4.273 0 0 1 .52 6.04Z" transform="translate(599 146)"></path><path fill="#000" d="M645.45 152.17c-.57.68-1.58.76-2.26.19-.68-.57-.76-1.58-.19-2.26.57-.68 1.58-.76 2.26-.19.67.57.76 1.58.19 2.26Z"></path><path fill="#FFF" d="M645.5 150.57c-.39.47-1.09.53-1.56.13-.47-.39-.53-1.09-.13-1.56.39-.47 1.09-.53 1.56-.13.46.4.52 1.09.13 1.56Z"></path><path fill="url(#bu)" d="M51.08 4.93s1.73.85 3.64.48c1.91-.37 7.73-.12 9.36 3.92 1.63 4.04 1.37 6.88-2.56 10.73-3.93 3.85-4.66 3.54-5.88 5.26-1.22 1.72-1.75 4.16-1.75 4.16s-.81.15-3.28-.63c-2.47-.78-2.49-1.57-2.49-1.57s2.97-4.52 6.41-6.8c3.45-2.28 7.56-4.54 7.34-8.08-.22-3.54-4.23-4.4-6.55-4.45-2.32-.05-4.21.11-5.29-.83-.01.01.73-.64 1.05-2.19Z" transform="translate(599 146)"></path><path fill="url(#bv)" d="M50.27 1.81s-.08 2.99-.91 4.34c-.84 1.35-2.27 2.51-2.27 2.51s2.78-.4 3.63-2.59c.85-2.18-.45-4.26-.45-4.26Z" transform="translate(599 146)"></path><path fill="url(#bw)" d="M73.89 36.07a3.489 3.489 0 0 0-.87 4.87 3.489 3.489 0 0 0 4.87.87c1.59-1.1 1.98-3.29.87-4.87a3.508 3.508 0 0 0-4.87-.87Z" transform="translate(599 146)"></path><path fill="#000" d="M673.39 185.05c-.59.41-.74 1.23-.33 1.82.41.59 1.23.74 1.82.33.59-.41.74-1.23.33-1.82-.41-.59-1.22-.74-1.82-.33Z"></path><path fill="#FFF" d="M674.7 185.13c-.41.29-.51.85-.23 1.26.29.41.85.51 1.26.23.41-.29.51-.85.23-1.26a.912.912 0 0 0-1.26-.23Z"></path><path fill="url(#bx)" d="M75.75 35.38s-.56-1.47-.11-3c.45-1.53.68-6.28-2.48-7.9-3.16-1.63-5.49-1.63-8.92 1.27-3.43 2.91-3.23 3.53-4.72 4.39C58.03 31 56 31.25 56 31.25s-.19.65.27 2.72c.45 2.06 1.09 2.14 1.09 2.14s3.9-2.07 6.01-4.7c2.12-2.63 4.26-5.81 7.12-5.36 2.86.45 3.26 3.77 3.13 5.66-.13 1.89-.41 3.42.28 4.36-.01 0 .56-.54 1.85-.69Z" transform="translate(599 146)"></path><path fill="url(#by)" d="M78.23 36.27s-2.43-.16-3.6.42c-1.16.58-2.21 1.66-2.21 1.66s.54-2.23 2.38-2.76c1.83-.53 3.43.68 3.43.68Z" transform="translate(599 146)"></path><path fill="url(#bz)" d="M24.47 34.51c.24-.07 14.94-4.8 18.37-6.33 3.43-1.53 8.43-3.58 12.67 1.07 4.25 4.64-.18 9.53-.18 9.53s-.02 3.64-1.44 3.44c-1.43-.21-2.61-1.52-2.61-1.52l-3.76 2.47s1.28 2.37.36 3.2c-.92.82-2.16.93-2.16.93s.46 7.33 1.12 11.7c.66 4.37-2.51 16.56-12.94 12.74-.65-.24-1.3-.5-1.95-.79-9.69-4.27-18.5-13.57-17.77-23.68.55-7.62 6.36-11.6 10.29-12.76Z" transform="translate(599 146)"></path><path fill="url(#bA)" d="M18.7 55.98s-2.71 3.1-3.71 2.67c-1-.43-2.86-1.97-4.83-3.58-1.97-1.61-4.12-3.86-5.53-4.18-1.41-.32-2.03-.22-2.03-.22s.9.95 1.59 2.11c.68 1.15.88 2.39.88 2.39s-.5-.38-2.32.09l-1.82.47s3.26 1.39 4.12 2.37c.86.98 3.34 2.9 5.19 4.65 1.85 1.75 4.26 4.32 5.65 3.02 1.4-1.3 1.21-2.08 2.81-3.16s3.23-1.64 3.23-1.64" transform="translate(599 146)"></path><path fill="url(#bB)" d="M25.7 34.01s3.02-4.33 3.67-5.48c.65-1.15.41-11.19.41-11.19l-6.87.08s.44 1.19.02 2.29-2.81 1.54-2.81 1.54l.36-.65c.35-.65-.14-2.01-.14-2.01s-1.05 1.01-1.74 2.07c-.7 1.05-2.17 4.22-2.17 4.22l-.36-1.44c-.36-1.44.77-5.4.77-5.4s-1.01 1.04-1.49 1.77c-.49.73-1.85 2.72-1.85 2.72s-.8-1.3-.46-2.97c.34-1.67 2.56-4.08 2.56-4.08s-.54.42-1.52.61-3.22 1.2-3.22 1.2.25-.67.91-1.38c.66-.71 2.23-1.97 2.23-1.97l-2.22-.48s1.38-.94 3.86-1.29c2.48-.35 5.38 2.09 5.38 2.09s4.77-.18 7.75-.62c2.97-.44 4.3.18 5.14 2.98.83 2.8 2 16.96 2 16.96s-.66 4.44-5.27 4.73c-4.63.29-4.94-4.3-4.94-4.3Z" transform="translate(599 146)"></path><path fill="url(#bC)" d="M6.17 2.25 5.04 3.59l2.43.1-.96 1.82 2.41-.14-.75 2.11 1.91-.22-.75 1.43 2.01.35c.47-.32.9-.61 1.24-.82 1.47-.93 2.09-.99 2.09-.99L12.71 1S7.08-.19 4.4 1.09c-.3.15-.6.32-.89.51l2.66.65Z" transform="translate(637 179)"></path><path fill="#FFF" d="m645.49 188.69.39-1.27-1.9.08.66-1.96-2.51-.28.76-1.8-2.76.19 1.03-2.03-1.45-.39c-1.86 1.61-3.08 4.08-2.04 6.03 1.33 2.49 7.05 3.31 7.05 3.31s1.59-1.13 3.07-2.14l-2.3.26Z"></path><path fill="#FFF" d="M640.8 216.12s3.89-3.55 3.94-9.02c.05-5.47-1.87-11.25-6.24-14.18-4.37-2.92-17.68-4.26-17.78 5.33-.08 7.17 5.34 14.83 12.53 17.58 2.43.94 4.77 1.56 7.55.29Z" opacity=".3"></path></g></svg>